<?xml version="1.0" encoding="UTF-8"?>
<svg width="538.81" height="193.05" version="1.1" viewBox="0 0 538.81 193.05" xmlns="http://www.w3.org/2000/svg"><g transform="scale(.32)"><path d="m241.61 301.64h100.94" fill="none" stroke="#000" stroke-miterlimit="10" stroke-width="3.0014"/><path d="m358.3 301.64-21.01 10.505 5.2524-10.505-5.2524-10.505z"/><g stroke-width="3.0014"><path d="m358.3 301.64-21.01 10.505 5.2524-10.505-5.2524-10.505z" fill="none" stroke="#000" stroke-miterlimit="10"/><path d="m1.5007 241.61h240.11v120.05h-240.11z" fill="none" stroke="#000" stroke-miterlimit="10"/><text x="91.241615" y="321.1467" fill="#000000" font-family="monospace" font-size="48.022px" xml:space="preserve"><tspan x="91.241615 120.05484" y="321.1467" font-family="monospace" stroke-width="3.0014">C0</tspan></text><path d="m601.77 301.64h100.94" fill="none" stroke="#000" stroke-miterlimit="10"/></g><path d="m718.47 301.64-21.01 10.505 5.2524-10.505-5.2524-10.505z"/><g stroke-width="3.0014"><path d="m718.47 301.64-21.01 10.505 5.2524-10.505-5.2524-10.505z" fill="none" stroke="#000" stroke-miterlimit="10"/><path d="m361.67 241.61h240.11v120.05h-240.11z" fill="none" stroke="#000" stroke-miterlimit="10"/><text x="451.40613" y="321.1467" fill="#000000" font-family="monospace" font-size="48.022px" xml:space="preserve"><tspan x="451.40613 480.21933" y="321.1467" font-family="monospace" stroke-width="3.0014">C1</tspan></text><path d="m961.94 301.64h100.94" fill="none" stroke="#000" stroke-miterlimit="10"/></g><path d="m1078.6 301.64-21.01 10.505 5.2524-10.505-5.2524-10.505z"/><g stroke-width="3.0014"><path d="m1078.6 301.64-21.01 10.505 5.2524-10.505-5.2524-10.505z" fill="none" stroke="#000" stroke-miterlimit="10"/><path d="m721.83 241.61h240.11v120.05h-240.11z" fill="none" stroke="#000" stroke-miterlimit="10"/><text x="811.57056" y="321.1467" fill="#000000" font-family="monospace" font-size="48.022px" xml:space="preserve"><tspan x="811.57056 840.38379" y="321.1467" font-family="monospace" stroke-width="3.0014">C2</tspan></text><path d="m1562.2 481.72v-100.94" fill="none" stroke="#000" stroke-miterlimit="10"/></g><path d="m1562.2 365.03 10.505 21.01-10.505-5.2524-10.505 5.2524z"/><g stroke-width="3.0014"><path d="m1562.2 365.03 10.505 21.01-10.505-5.2524-10.505 5.2524z" fill="none" stroke="#000" stroke-miterlimit="10"/><path d="m1460.2 481.72h204.09c1.1823 0 2.3534 0.11525 3.5132 0.346 1.1595 0.2308 2.2856 0.57224 3.378 1.0248 1.0923 0.45248 2.1301 1.0072 3.1133 1.6641 0.9832 0.65697 1.8929 1.4035 2.7291 2.2396 0.8361 0.83612 1.5826 1.7458 2.2395 2.7289 0.6567 0.98319 1.2115 2.021 1.6641 3.1134 0.4525 1.0924 0.7941 2.2185 1.0248 3.3782 0.2308 1.1597 0.3462 2.3308 0.3462 3.5132v84.038c0 1.1824-0.1156 2.3535-0.3462 3.5132-0.2306 1.1597-0.5723 2.2858-1.0248 3.3782-0.4526 1.0924-1.0074 2.1302-1.6641 3.1134-0.6569 0.98322-1.4034 1.8928-2.2395 2.729-0.8362 0.83612-1.7459 1.5826-2.729 2.2396-0.9831 0.65685-2.0211 1.2116-3.1134 1.6641-1.0924 0.45249-2.2185 0.79407-3.378 1.0248-1.1598 0.2308-2.3309 0.34603-3.5132 0.34609h-204.09c-1.1824-6e-5 -2.3536-0.11556-3.5132-0.34609-1.1598-0.23081-2.2859-0.57233-3.3783-1.0248-1.0925-0.45252-2.1302-1.0072-3.1134-1.6641-0.9832-0.65691-1.8928-1.4034-2.7289-2.2395-0.8362-0.83613-1.5827-1.7458-2.2396-2.7289-0.657-0.98313-1.2117-2.0209-1.6641-3.1134-0.4526-1.0924-0.7942-2.2185-1.0247-3.3781-0.2308-1.1597-0.3461-2.3308-0.346-3.5132v-84.038c-1e-4 -1.1824 0.1153-2.3535 0.3459-3.5132 0.2305-1.1597 0.5722-2.2858 1.0248-3.3782 0.4524-1.0924 1.0071-2.1302 1.6641-3.1134 0.6569-0.98312 1.4034-1.8928 2.2396-2.7289 0.8361-0.83612 1.7457-1.5826 2.7289-2.2396 0.9832-0.65697 2.0209-1.2117 3.1134-1.6641 1.0924-0.45252 2.2185-0.79408 3.3783-1.0248 1.1596-0.23069 2.3308-0.346 3.5132-0.346z" fill="none" stroke="#000" stroke-miterlimit="10"/><text x="1474.2732" y="561.25635" fill="#000000" font-family="monospace" font-size="48.022px" xml:space="preserve"><tspan x="1474.2732 1503.0864 1531.8997 1560.7129 1589.5261 1618.3394" y="561.25635" font-family="monospace" stroke-width="3.0014">master</tspan></text><path d="m841.88 121.56v100.94" fill="none" stroke="#000" stroke-miterlimit="10"/></g><path d="m841.88 238.25-10.505-21.01 10.505 5.2524 10.505-5.2524z"/><g stroke-width="3.0014"><path d="m841.88 238.25-10.505-21.01 10.505 5.2524 10.505-5.2524z" fill="none" stroke="#000" stroke-miterlimit="10"/><path d="m619.78 1.5007h444.2c1.1824 0 2.3535 0.11534 3.5132 0.34602 1.1597 0.23068 2.2857 0.57227 3.3782 1.0248 1.0924 0.4525 2.1303 1.0072 3.1134 1.6641s1.8928 1.4034 2.729 2.2396c0.836 0.83611 1.5825 1.7457 2.2393 2.7289 0.657 0.98316 1.2117 2.021 1.6642 3.1134 0.4526 1.0924 0.7941 2.2185 1.0248 3.3782 0.2307 1.1597 0.3461 2.3308 0.3461 3.5132v84.038c0 1.1824-0.1152 2.3535-0.3459 3.5132-0.2308 1.1597-0.5724 2.2858-1.0249 3.3782-0.4525 1.0924-1.0072 2.1302-1.6642 3.1134-0.6569 0.98317-1.4034 1.8928-2.2394 2.7289-0.8362 0.83611-1.7459 1.5826-2.729 2.2395s-2.021 1.2116-3.1134 1.6641c-1.0925 0.4525-2.2185 0.79409-3.3782 1.0248-1.1597 0.23068-2.3308 0.34602-3.5132 0.34603h-444.2c-1.1824-1e-5 -2.3536-0.11534-3.5133-0.34603s-2.2858-0.57228-3.3783-1.0248-2.1302-1.0072-3.1134-1.6641c-0.98313-0.65693-1.8928-1.4034-2.7289-2.2396-0.83612-0.83611-1.5826-1.7458-2.2396-2.7289-0.65691-0.98315-1.2116-2.0209-1.6641-3.1134-0.45255-1.0924-0.79413-2.2185-1.0248-3.3782-0.23065-1.1597-0.34599-2.3308-0.34593-3.5132v-84.038c-6e-5 -1.1824 0.11525-2.3535 0.34593-3.5132 0.23081-1.1597 0.57221-2.2858 1.0247-3.3782 0.45249-1.0924 1.0072-2.1302 1.6641-3.1134 0.65697-0.98316 1.4035-1.8928 2.2396-2.7289 0.83613-0.83611 1.7458-1.5826 2.7289-2.2396 0.98319-0.65693 2.021-1.2116 3.1134-1.6641 1.0924-0.4525 2.2185-0.79409 3.3782-1.0248 1.1597-0.23068 2.3308-0.34602 3.5133-0.34602z" fill="none" stroke="#000" stroke-miterlimit="10"/><text x="653.09784" y="81.03701" fill="#000000" font-family="monospace" font-size="48.022px" xml:space="preserve"><tspan x="653.09784 681.91107 710.7243 739.53754 768.35077 797.164 825.97723 854.79041 883.60364 912.41687 941.2301 970.04333 998.85657" y="81.03701" font-family="monospace" stroke-width="3.0014">origin/master</tspan></text><path d="m1322.1 301.64h100.94" fill="none" stroke="#000" stroke-miterlimit="10"/></g><path d="m1438.8 301.64-21.01 10.505 5.2524-10.505-5.2524-10.505z"/><g stroke-width="3.0014"><path d="m1438.8 301.64-21.01 10.505 5.2524-10.505-5.2524-10.505z" fill="none" stroke="#000" stroke-miterlimit="10"/><path d="m1082 241.61h240.11v120.05h-240.11z" fill="none" stroke="#000" stroke-miterlimit="10"/><text x="1171.7351" y="321.1467" fill="#000000" font-family="monospace" font-size="48.022px" xml:space="preserve"><tspan x="1171.7351 1200.5483" y="321.1467" font-family="monospace" stroke-width="3.0014">C3</tspan></text><path d="m1442.2 241.61h240.11v120.05h-240.11z" fill="none" stroke="#000" stroke-miterlimit="10"/><text x="1531.8997" y="321.1467" fill="#000000" font-family="monospace" font-size="48.022px" xml:space="preserve"><tspan x="1531.8997 1560.7128" y="321.1467" font-family="monospace" stroke-width="3.0014">C4</tspan></text></g></g></svg>
