<?xml version="1.0" encoding="UTF-8"?>
<svg width="423.55" height="116.21" version="1.1" viewBox="0 0 423.55 116.21" xmlns="http://www.w3.org/2000/svg"><g transform="scale(.32)"><path d="m241.61 301.64h100.94" fill="none" stroke="#000" stroke-miterlimit="10" stroke-width="3.0014"/><path d="m358.3 301.64-21.01 10.505 5.2524-10.505-5.2524-10.505z"/><path d="m358.3 301.64-21.01 10.505 5.2524-10.505-5.2524-10.505z" fill="none" stroke="#000" stroke-miterlimit="10" stroke-width="3.0014"/><path d="m1.5007 241.61h240.11v120.05h-240.11z" fill="#fff"/><g stroke-width="3.0014"><path d="m1.5007 241.61h240.11v120.05h-240.11z" fill="none" stroke="#000" stroke-miterlimit="10"/><g aria-label="C0"><path d="m104.99 321.76q-4.191 0-6.5484-1.7026-2.3574-1.7462-3.4052-5.6317-1.0041-3.8854-1.0041-10.783 0-6.854 1.0041-10.739 1.0478-3.8854 3.4052-5.588 2.3574-1.7026 6.5484-1.7026 2.8377 0 4.6276 0.74216 1.7899 0.6985 2.9686 2.3574 1.2224 1.6589 2.0955 4.6276l-2.925 1.0041q-0.74215-2.3574-1.5716-3.6235-0.78582-1.266-2.0082-1.7899-1.2224-0.52388-3.1869-0.52388-3.0559 0-4.7585 1.397-1.6589 1.397-2.4011 4.6712-0.74216 3.2742-0.74216 9.1678 0 5.8936 0.74216 9.2115 0.74216 3.2742 2.4011 4.7149 1.7026 1.397 4.7585 1.397 1.9645 0 3.1869-0.52387 1.2224-0.52388 2.0082-1.7462 0.82947-1.2224 1.5716-3.5362l2.925 0.96044q-0.87312 2.925-2.0518 4.5839-1.1787 1.6153-3.0123 2.3574-1.7899 0.6985-4.6276 0.6985z"/><path d="m133.15 321.76q-2.9686 0-5.4134-2.3138-2.4011-2.3138-3.7981-6.4175t-1.397-9.3424 1.397-9.3424 3.7981-6.4175q2.4448-2.3138 5.4134-2.3138 2.9686 0 5.3697 2.3138 2.4448 2.3138 3.8418 6.4175 1.397 4.1037 1.397 9.3424t-1.397 9.3424q-1.397 4.1037-3.8418 6.4175-2.4011 2.3138-5.3697 2.3138zm0-2.794q2.0082 0 3.7544-1.9645t2.7504-5.457q1.0478-3.4925 1.0478-7.8581t-1.0478-7.8581q-1.0041-3.4925-2.7504-5.457-1.7462-1.9645-3.7544-1.9645t-3.7544 1.9645q-1.7462 1.9645-2.794 5.457-1.0041 3.4925-1.0041 7.8581t1.0041 7.8581q1.0478 3.4925 2.794 5.457t3.7544 1.9645zm0-12.835q-1.1787 0-1.9209-0.65484-0.6985-0.6985-0.6985-1.7899 0-1.0478 0.6985-1.7026 0.74215-0.65484 1.9209-0.65484t1.8772 0.65484q0.74216 0.65485 0.74216 1.7026 0 1.0914-0.74216 1.7899-0.6985 0.65484-1.8772 0.65484z"/></g><path d="m601.77 301.64h100.94" fill="none" stroke="#000" stroke-miterlimit="10"/></g><path d="m718.47 301.64-21.01 10.505 5.2524-10.505-5.2524-10.505z"/><path d="m718.47 301.64-21.01 10.505 5.2524-10.505-5.2524-10.505z" fill="none" stroke="#000" stroke-miterlimit="10" stroke-width="3.0014"/><path d="m361.67 241.61h240.11v120.05h-240.11z" fill="#fff"/><g stroke-width="3.0014"><path d="m361.67 241.61h240.11v120.05h-240.11z" fill="none" stroke="#000" stroke-miterlimit="10"/><g aria-label="C1"><path d="m465.16 321.76q-4.191 0-6.5484-1.7026-2.3574-1.7462-3.4052-5.6317-1.0041-3.8854-1.0041-10.783 0-6.854 1.0041-10.739 1.0478-3.8854 3.4052-5.588 2.3574-1.7026 6.5484-1.7026 2.8377 0 4.6276 0.74216 1.7899 0.6985 2.9686 2.3574 1.2224 1.6589 2.0955 4.6276l-2.925 1.0041q-0.74216-2.3574-1.5716-3.6235-0.78581-1.266-2.0082-1.7899-1.2224-0.52388-3.1869-0.52388-3.0559 0-4.7585 1.397-1.6589 1.397-2.4011 4.6712-0.74216 3.2742-0.74216 9.1678 0 5.8936 0.74216 9.2115 0.74215 3.2742 2.4011 4.7149 1.7026 1.397 4.7585 1.397 1.9645 0 3.1869-0.52387 1.2224-0.52388 2.0082-1.7462 0.82947-1.2224 1.5716-3.5362l2.925 0.96044q-0.87313 2.925-2.0518 4.5839-1.1787 1.6153-3.0123 2.3574-1.7899 0.6985-4.6276 0.6985z"/><path d="m501.04 318.35v2.794h-15.454v-2.794h6.1992v-24.797q-2.7067 2.3574-7.0723 2.3574v-2.8377q3.3179 0 5.1951-1.7899 1.8772-1.8336 1.8772-5.0641h3.0559v32.131z"/></g><path d="m961.94 301.64h100.94" fill="none" stroke="#000" stroke-miterlimit="10"/></g><path d="m1078.6 301.64-21.01 10.505 5.2524-10.505-5.2524-10.505z"/><path d="m1078.6 301.64-21.01 10.505 5.2524-10.505-5.2524-10.505z" fill="none" stroke="#000" stroke-miterlimit="10" stroke-width="3.0014"/><path d="m721.83 241.61h240.11v120.05h-240.11z" fill="#fff"/><path d="m721.83 241.61h240.11v120.05h-240.11z" fill="none" stroke="#000" stroke-miterlimit="10" stroke-width="3.0014"/><g stroke-width="3.0014" aria-label="C2"><path d="m825.32 321.76q-4.191 0-6.5484-1.7026-2.3574-1.7462-3.4052-5.6317-1.0041-3.8854-1.0041-10.783 0-6.854 1.0041-10.739 1.0478-3.8854 3.4052-5.588 2.3574-1.7026 6.5484-1.7026 2.8377 0 4.6276 0.74216 1.7899 0.6985 2.9686 2.3574 1.2224 1.6589 2.0955 4.6276l-2.925 1.0041q-0.74215-2.3574-1.5716-3.6235-0.78581-1.266-2.0082-1.7899-1.2224-0.52388-3.1869-0.52388-3.0559 0-4.7585 1.397-1.6589 1.397-2.4011 4.6712-0.74215 3.2742-0.74215 9.1678 0 5.8936 0.74215 9.2115 0.74216 3.2742 2.4011 4.7149 1.7026 1.397 4.7585 1.397 1.9645 0 3.1869-0.52387 1.2224-0.52388 2.0082-1.7462 0.82947-1.2224 1.5716-3.5362l2.925 0.96044q-0.87313 2.925-2.0518 4.5839-1.1787 1.6153-3.0123 2.3574-1.7899 0.6985-4.6276 0.6985z"/><path d="m843 318.75q0-2.0082 1.0914-3.7981 1.0914-1.8336 2.7067-3.3179 1.6589-1.4843 4.4529-3.6671 3.1432-2.4448 5.0641-4.2346 1.9209-1.7899 3.2306-4.1037 1.3534-2.3574 1.3534-5.0641 0-2.4448-0.6985-3.7544-0.65485-1.3097-2.2701-1.8336-1.5716-0.56753-4.4966-0.56753-2.9686 0-4.5839 0.61119-1.5716 0.56753-2.2265 1.9645-0.61119 1.397-0.56754 3.9727h-3.0559q-0.0437-3.5798 0.91678-5.588 0.96044-2.0082 3.1869-2.8813 2.2701-0.87313 6.3302-0.87313 4.0164 0 6.2865 0.82947 2.2701 0.82947 3.2306 2.794 1.0041 1.9209 1.0041 5.3261 0 3.4488-1.5716 6.2865-1.528 2.794-3.7544 4.8458-2.1828 2.0518-5.588 4.6712-2.4448 1.8772-3.7108 3.0123-1.266 1.0914-2.1828 2.3574t-1.0478 2.6194h17.768v2.794h-20.868z"/></g><path d="m1082 241.61h240.11v120.05h-240.11z" fill="#fff"/><g stroke-width="3.0014"><path d="m1082 241.61h240.11v120.05h-240.11z" fill="none" stroke="#000" stroke-miterlimit="10"/><g aria-label="C3"><path d="m1185.5 321.76q-4.191 0-6.5484-1.7026-2.3574-1.7462-3.4052-5.6317-1.0041-3.8854-1.0041-10.783 0-6.854 1.0041-10.739 1.0478-3.8854 3.4052-5.588 2.3574-1.7026 6.5484-1.7026 2.8377 0 4.6276 0.74216 1.7899 0.6985 2.9686 2.3574 1.2224 1.6589 2.0955 4.6276l-2.9249 1.0041q-0.7422-2.3574-1.5717-3.6235-0.7858-1.266-2.0082-1.7899-1.2223-0.52388-3.1869-0.52388-3.0559 0-4.7585 1.397-1.6589 1.397-2.4011 4.6712-0.7422 3.2742-0.7422 9.1678 0 5.8936 0.7422 9.2115 0.7422 3.2742 2.4011 4.7149 1.7026 1.397 4.7585 1.397 1.9646 0 3.1869-0.52387 1.2224-0.52388 2.0082-1.7462 0.8295-1.2224 1.5717-3.5362l2.9249 0.96044q-0.8731 2.925-2.0518 4.5839-1.1787 1.6153-3.0123 2.3574-1.7899 0.6985-4.6276 0.6985z"/><path d="m1213.6 321.76q-3.8854 0-6.0245-0.87313-2.1392-0.87313-3.056-2.8377t-0.9168-5.457h3.056q0 2.5321 0.5675 3.8854 0.6112 1.3533 2.0955 1.9209t4.2783 0.56753q2.7067 0 4.191-0.65484t2.0955-2.1392q0.6549-1.528 0.6549-4.322 0-2.9686-0.5676-4.5402-0.5238-1.6153-1.8335-2.3138-1.2661-0.74216-3.6672-0.91678h-3.4925v-2.794h3.4925q2.4011-0.17462 3.6672-0.74215 1.3097-0.61119 1.8335-1.9209 0.5676-1.3097 0.5676-3.7544 0-2.5321-0.6549-3.8854-0.6112-1.397-2.0955-1.9645-1.4843-0.61119-4.191-0.61119-2.8376 0-4.3219 0.52388-1.4407 0.52387-2.0519 1.7899-0.5675 1.2224-0.5675 3.5798h-3.056q0-3.3615 0.9168-5.1951 0.9168-1.8772 3.056-2.663 2.1391-0.82947 6.0245-0.82947 3.7981 0 5.9373 0.87313 2.1828 0.87312 3.0996 2.8813 0.9604 2.0082 0.9604 5.5007 0 3.2742-0.8295 4.9332-0.8294 1.6589-3.0559 2.8813 2.1828 1.266 3.0123 3.2306 0.8731 1.9645 0.8731 5.9372 0 3.7544-0.9604 5.8936-0.9168 2.1392-3.0996 3.0996-2.1392 0.91679-5.9373 0.91679z"/></g><path d="m841.88 121.56v100.94" fill="none" stroke="#000" stroke-miterlimit="10"/></g><path d="m841.88 238.25-10.505-21.01 10.505 5.2524 10.505-5.2524z"/><path d="m841.88 238.25-10.505-21.01 10.505 5.2524 10.505-5.2524z" fill="none" stroke="#000" stroke-miterlimit="10" stroke-width="3.0014"/><path d="m739.84 1.5007h204.09c1.1824 0 2.3534 0.11534 3.5132 0.34602 1.1597 0.23068 2.2857 0.57227 3.3781 1.0248 1.0923 0.4525 2.1301 1.0072 3.1133 1.6641 0.98319 0.65693 1.8929 1.4034 2.729 2.2396 0.83619 0.83611 1.5827 1.7457 2.2395 2.7289 0.65682 0.98316 1.2115 2.021 1.6641 3.1134 0.45257 1.0924 0.79413 2.2185 1.0248 3.3782 0.23074 1.1597 0.34605 2.3308 0.34614 3.5132v84.038c-9e-5 1.1824-0.11555 2.3535-0.34614 3.5132-0.23081 1.1597-0.57228 2.2858-1.0248 3.3782-0.45255 1.0924-1.0073 2.1302-1.6641 3.1134-0.65682 0.98317-1.4033 1.8928-2.2395 2.7289-0.83615 0.83611-1.7459 1.5826-2.729 2.2395-0.98325 0.65693-2.021 1.2116-3.1134 1.6641-1.0924 0.4525-2.2184 0.79409-3.3781 1.0248-1.1598 0.23068-2.3308 0.34602-3.5132 0.34603h-204.09c-1.1825-1e-5 -2.3536-0.11534-3.5134-0.34603s-2.2858-0.57228-3.3782-1.0248-2.1302-1.0072-3.1134-1.6641c-0.98313-0.65693-1.8927-1.4034-2.7288-2.2396s-1.5826-1.7458-2.2396-2.7289c-0.65694-0.98315-1.2117-2.0209-1.6641-3.1134-0.45249-1.0924-0.79411-2.2185-1.0248-3.3782-0.23066-1.1597-0.346-2.3308-0.34594-3.5132v-84.038c-6e-5 -1.1824 0.11525-2.3535 0.34591-3.5132 0.2308-1.1597 0.57233-2.2858 1.0248-3.3782 0.45245-1.0924 1.0072-2.1302 1.6641-3.1134 0.65697-0.98316 1.4035-1.8928 2.2396-2.7289 0.83612-0.83611 1.7457-1.5826 2.7288-2.2396 0.98325-0.65693 2.021-1.2116 3.1134-1.6641 1.0924-0.4525 2.2185-0.79409 3.3782-1.0248 1.1597-0.23068 2.3308-0.34602 3.5133-0.34602z" fill="#fff"/><g stroke-width="3.0014"><path d="m739.84 1.5007h204.09c1.1824 0 2.3534 0.11534 3.5132 0.34602 1.1597 0.23068 2.2857 0.57227 3.3781 1.0248 1.0923 0.4525 2.1301 1.0072 3.1133 1.6641 0.98319 0.65693 1.8929 1.4034 2.729 2.2396 0.83619 0.83611 1.5827 1.7457 2.2395 2.7289 0.65682 0.98316 1.2115 2.021 1.6641 3.1134 0.45257 1.0924 0.79413 2.2185 1.0248 3.3782 0.23074 1.1597 0.34605 2.3308 0.34614 3.5132v84.038c-9e-5 1.1824-0.11555 2.3535-0.34614 3.5132-0.23081 1.1597-0.57228 2.2858-1.0248 3.3782-0.45255 1.0924-1.0073 2.1302-1.6641 3.1134-0.65682 0.98317-1.4033 1.8928-2.2395 2.7289-0.83615 0.83611-1.7459 1.5826-2.729 2.2395-0.98325 0.65693-2.021 1.2116-3.1134 1.6641-1.0924 0.4525-2.2184 0.79409-3.3781 1.0248-1.1598 0.23068-2.3308 0.34602-3.5132 0.34603h-204.09c-1.1825-1e-5 -2.3536-0.11534-3.5134-0.34603s-2.2858-0.57228-3.3782-1.0248-2.1302-1.0072-3.1134-1.6641c-0.98313-0.65693-1.8927-1.4034-2.7288-2.2396s-1.5826-1.7458-2.2396-2.7289c-0.65694-0.98315-1.2117-2.0209-1.6641-3.1134-0.45249-1.0924-0.79411-2.2185-1.0248-3.3782-0.23066-1.1597-0.346-2.3308-0.34594-3.5132v-84.038c-6e-5 -1.1824 0.11525-2.3535 0.34591-3.5132 0.2308-1.1597 0.57233-2.2858 1.0248-3.3782 0.45245-1.0924 1.0072-2.1302 1.6641-3.1134 0.65697-0.98316 1.4035-1.8928 2.2396-2.7289 0.83612-0.83611 1.7457-1.5826 2.7288-2.2396 0.98325-0.65693 2.021-1.2116 3.1134-1.6641 1.0924-0.4525 2.2185-0.79409 3.3782-1.0248 1.1597-0.23068 2.3308-0.34602 3.5133-0.34602z" fill="none" stroke="#000" stroke-miterlimit="10"/><g aria-label="master"><path d="m759.1 54.057v1.7026q0.87313-1.266 1.7462-1.7463 0.87313-0.52388 2.3574-0.52388 1.6589 0 2.5321 0.74216 0.87312 0.74216 1.5716 2.7503 1.0914-2.0082 2.2701-2.7503 1.1787-0.74216 3.0996-0.74216 2.0955 0 3.2306 0.96044 1.1787 0.91678 1.6589 3.0996 0.48022 2.1828 0.48022 6.1555v17.332h-3.0559v-17.332q0-2.7067-0.26194-4.191-0.21828-1.528-0.78581-2.1828-0.52388-0.65484-1.528-0.65484-1.4843 0-2.3138 0.65484-0.78581 0.61119-1.1787 2.1392-0.34925 1.4843-0.34925 4.1473v17.419h-3.0559v-17.07q0-2.794-0.26194-4.3656-0.21828-1.5716-0.78581-2.2265-0.56754-0.6985-1.528-0.6985-1.4843 0-2.3138 0.65484-0.82947 0.61119-1.1787 2.0955t-0.34925 4.191v17.419h-3.0559v-26.98z"/><path d="m794.72 81.648q-3.6235 0-5.6753-0.74216-2.0518-0.78581-2.9686-2.5321-0.87312-1.7463-0.87312-4.8022 0-3.2742 0.87312-5.0641 0.91678-1.7899 2.925-2.5321 2.0518-0.78581 5.719-0.78581h6.4611v-2.2701q0-2.5321-0.61119-3.8854-0.56753-1.397-1.9645-2.0082-1.3533-0.61119-3.8854-0.61119-1.8772 0-3.0123 0.39291-1.1351 0.39291-1.8336 1.3533-0.65485 0.96044-1.1351 2.7067l-2.925-0.6985q0.6985-2.5321 1.7463-3.9727 1.0478-1.4407 2.7503-2.0955 1.7026-0.65484 4.4093-0.65484 3.6235 0 5.6753 0.96044 2.0518 0.91678 2.925 2.9686 0.91678 2.0082 0.91678 5.5443v11.089q0 1.7899 0.3056 2.7067 0.30559 0.87313 1.0041 1.2224 0.6985 0.30559 2.0955 0.26194v2.8377q-2.4448 0.04366-3.6671-0.61119-1.2224-0.6985-1.7462-2.4884-1.2224 2.0955-2.8813 2.925-1.6589 0.78581-4.6276 0.78581zm0-2.794q2.5321 0 3.8854-0.65484 1.397-0.6985 1.9645-2.2701 0.61119-1.6153 0.61119-4.4966v-3.4488h-6.4611q-2.5757 0-3.9291 0.48022-1.3533 0.43656-1.9645 1.6589-0.56753 1.1787-0.56753 3.4488 0 2.0518 0.56753 3.1869 0.56753 1.1351 1.9645 1.6153t3.9291 0.48022z"/><path d="m823.58 81.648q-3.2306 0-5.0641-1.0478-1.7899-1.0914-3.2742-3.7981l2.4011-1.9645q1.1351 2.3574 2.3574 3.1869 1.2224 0.82947 3.5798 0.82947 3.2306 0 4.9768-0.48022 1.7899-0.48022 2.4884-1.6153 0.74215-1.1351 0.74215-3.1869 0-1.7899-0.61119-2.794-0.61118-1.0041-2.0955-1.5716-1.4406-0.56753-4.2347-0.91678-4.9768-0.61119-7.0723-2.2701-2.0955-1.7026-2.0955-4.8895 0-2.925 0.96044-4.5403 0.96043-1.6589 3.0996-2.4011 2.1828-0.74216 6.0246-0.74216 3.3615 0 5.2388 0.91678 1.9209 0.87313 3.4052 3.1869l-2.1828 2.1828q-1.2224-2.0518-2.5321-2.7503-1.3097-0.74216-3.9291-0.74216-2.7504 0-4.2783 0.48022-1.4843 0.43656-2.1392 1.4843-0.61118 1.0041-0.61118 2.925 0 1.8336 1.397 2.8377 1.397 1.0041 4.8022 1.4407 3.8418 0.52388 5.9372 1.4407 2.1392 0.87312 3.0559 2.4448t0.91678 4.2783q0 3.0559-1.0914 4.8022-1.0478 1.7462-3.4925 2.5321-2.4011 0.74216-6.6794 0.74216z"/><path d="m856.32 81.648q-2.925 0-4.6712-1.0041-1.7026-1.0041-2.4448-3.1433-0.74216-2.1392-0.74216-5.7626v-15.018h-5.4134v-2.8377h5.4134v-7.7708h3.0559v7.7708h9.0805v2.8377h-9.0805v15.018q0 3.8854 1.0478 5.5007 1.0914 1.6153 3.7544 1.6153 2.2701 0 3.2306-0.52388 0.96044-0.56753 1.5716-2.1828l2.8377 0.96044q-0.87313 2.5757-2.5321 3.5798-1.6589 0.96044-5.1078 0.96044z"/><path d="m882.42 53.446q3.8418 0 5.9373 1.397 2.1392 1.3533 3.0559 4.4966 0.91678 3.0996 0.87312 8.6439h-17.375q0.0873 4.191 0.78582 6.5484 0.6985 2.3138 2.2701 3.3179 1.6153 1.0041 4.4529 1.0041 2.4884 0 3.9727-0.74216 1.4843-0.78581 3.1433-2.9686l2.4448 1.6153q-1.9645 2.7503-4.06 3.8418-2.0518 1.0478-5.5007 1.0478-4.0164 0-6.3302-1.3533-2.2701-1.3533-3.2742-4.3656-0.96043-3.0559-0.96043-8.382t0.96043-8.3383q1.0041-3.0559 3.2742-4.4093 2.3138-1.3533 6.3302-1.3533zm6.7667 11.744q-0.21829-3.4488-0.91679-5.3697t-2.0955-2.7503q-1.3533-0.82947-3.7544-0.82947-2.663 0-4.2347 0.82947-1.5716 0.82947-2.3574 2.794-0.74216 1.9209-0.87313 5.3261z"/><path d="m906.09 54.057v4.322q0.82946-1.9645 2.794-3.4488 2.0082-1.4843 4.4966-1.4843 3.2306 0 4.9332 1.266 1.7462 1.2224 3.0559 4.4529l-2.7067 1.2224q-0.87312-2.4011-1.9645-3.2742-1.0914-0.87313-3.3179-0.87313-2.5757 0-4.2347 1.528-1.6153 1.4843-2.3574 3.7108-0.6985 2.1828-0.6985 4.4093v15.149h-3.0559v-26.98z"/></g><path d="m1202 121.56v100.94" fill="none" stroke="#000" stroke-miterlimit="10"/></g><path d="m1202 238.25-10.505-21.01 10.505 5.2524 10.505-5.2524z"/><path d="m1202 238.25-10.505-21.01 10.505 5.2524 10.505-5.2524z" fill="none" stroke="#000" stroke-miterlimit="10" stroke-width="3.0014"/><path d="m1100 1.5007h204.09c1.1823 0 2.3533 0.11534 3.513 0.34602 1.1596 0.23068 2.2857 0.57227 3.3782 1.0248 1.0924 0.4525 2.1302 1.0072 3.1133 1.6641 0.9832 0.65693 1.8929 1.4034 2.729 2.2396 0.8361 0.83611 1.5826 1.7457 2.2396 2.7289 0.6569 0.98316 1.2116 2.021 1.6642 3.1134 0.4525 1.0924 0.794 2.2185 1.0247 3.3782 0.2308 1.1597 0.3461 2.3308 0.3462 3.5132v84.038c-1e-4 1.1824-0.1156 2.3535-0.3462 3.5132-0.2308 1.1597-0.5723 2.2858-1.0248 3.3782-0.4526 1.0924-1.0073 2.1302-1.6642 3.1134-0.6569 0.98317-1.4034 1.8928-2.2395 2.7289s-1.7458 1.5826-2.729 2.2395c-0.983 0.65693-2.0208 1.2116-3.1132 1.6641-1.0925 0.4525-2.2187 0.79409-3.3783 1.0248-1.1597 0.23068-2.3307 0.34602-3.513 0.34603h-204.09c-1.1824-1e-5 -2.3535-0.11534-3.5132-0.34603s-2.2859-0.57228-3.3783-1.0248c-1.0925-0.4525-2.1303-1.0072-3.1134-1.6641-0.9831-0.65693-1.8926-1.4034-2.7288-2.2396s-1.5827-1.7458-2.2397-2.7289c-0.6568-0.98315-1.2115-2.0209-1.6641-3.1134-0.4525-1.0924-0.794-2.2185-1.0248-3.3782-0.2306-1.1597-0.3459-2.3308-0.3459-3.5132v-84.038c0-1.1824 0.1153-2.3535 0.3459-3.5132 0.2309-1.1597 0.5723-2.2858 1.0248-3.3782 0.4526-1.0924 1.0073-2.1302 1.6641-3.1134 0.657-0.98316 1.4035-1.8928 2.2397-2.7289 0.8362-0.83611 1.7457-1.5826 2.7288-2.2396s2.0209-1.2116 3.1134-1.6641c1.0924-0.4525 2.2186-0.79409 3.3783-1.0248 1.1597-0.23068 2.3308-0.34602 3.5132-0.34602z" fill="#fff"/><path d="m1100 1.5007h204.09c1.1823 0 2.3533 0.11534 3.513 0.34602 1.1596 0.23068 2.2857 0.57227 3.3782 1.0248 1.0924 0.4525 2.1302 1.0072 3.1133 1.6641 0.9832 0.65693 1.8929 1.4034 2.729 2.2396 0.8361 0.83611 1.5826 1.7457 2.2396 2.7289 0.6569 0.98316 1.2116 2.021 1.6642 3.1134 0.4525 1.0924 0.794 2.2185 1.0247 3.3782 0.2308 1.1597 0.3461 2.3308 0.3462 3.5132v84.038c-1e-4 1.1824-0.1156 2.3535-0.3462 3.5132-0.2308 1.1597-0.5723 2.2858-1.0248 3.3782-0.4526 1.0924-1.0073 2.1302-1.6642 3.1134-0.6569 0.98317-1.4034 1.8928-2.2395 2.7289s-1.7458 1.5826-2.729 2.2395c-0.983 0.65693-2.0208 1.2116-3.1132 1.6641-1.0925 0.4525-2.2187 0.79409-3.3783 1.0248-1.1597 0.23068-2.3307 0.34602-3.513 0.34603h-204.09c-1.1824-1e-5 -2.3535-0.11534-3.5132-0.34603s-2.2859-0.57228-3.3783-1.0248c-1.0925-0.4525-2.1303-1.0072-3.1134-1.6641-0.9831-0.65693-1.8926-1.4034-2.7288-2.2396s-1.5827-1.7458-2.2397-2.7289c-0.6568-0.98315-1.2115-2.0209-1.6641-3.1134-0.4525-1.0924-0.794-2.2185-1.0248-3.3782-0.2306-1.1597-0.3459-2.3308-0.3459-3.5132v-84.038c0-1.1824 0.1153-2.3535 0.3459-3.5132 0.2309-1.1597 0.5723-2.2858 1.0248-3.3782 0.4526-1.0924 1.0073-2.1302 1.6641-3.1134 0.657-0.98316 1.4035-1.8928 2.2397-2.7289 0.8362-0.83611 1.7457-1.5826 2.7288-2.2396s2.0209-1.2116 3.1134-1.6641c1.0924-0.4525 2.2186-0.79409 3.3783-1.0248 1.1597-0.23068 2.3308-0.34602 3.5132-0.34602z" fill="none" stroke="#000" stroke-miterlimit="10" stroke-width="3.0014"/><g stroke-width="3.0014" aria-label="feature1"><path d="m1102 45.501q2.5321 0 4.06 0.43656 1.5717 0.39291 2.4884 1.397 0.9605 0.96044 1.528 2.7067l-2.8376 0.96044q-0.3929-1.0914-0.9605-1.6589-0.5675-0.56753-1.5716-0.78581-0.9604-0.26194-2.7067-0.26194-2.2265 0-3.4488 0.61119-1.2224 0.56753-1.7463 1.9645-0.4802 1.3533-0.4802 3.9291v4.3656h7.7708v2.794h-7.7708v19.078h-3.0559v-19.078h-5.4134v-2.794h5.4134v-4.3656q0-3.5362 0.8294-5.5443 0.8295-2.0082 2.7067-2.8813 1.8772-0.87313 5.1951-0.87313z"/><path d="m1127.3 53.446q3.8417 0 5.9372 1.397 2.1392 1.3533 3.056 4.4966 0.9168 3.0996 0.8731 8.6439h-17.375q0.087 4.191 0.7858 6.5484 0.6985 2.3138 2.2702 3.3179 1.6152 1.0041 4.4529 1.0041 2.4884 0 3.9727-0.74216 1.4843-0.78581 3.1433-2.9686l2.4447 1.6153q-1.9645 2.7503-4.06 3.8418-2.0519 1.0478-5.5007 1.0478-4.0164 0-6.3302-1.3533-2.2701-1.3533-3.2742-4.3656-0.9604-3.0559-0.9604-8.382t0.9604-8.3383q1.0041-3.0559 3.2742-4.4093 2.3138-1.3533 6.3302-1.3533zm6.7667 11.744q-0.2183-3.4488-0.9168-5.3697t-2.0955-2.7503q-1.3533-0.82947-3.7544-0.82947-2.663 0-4.2347 0.82947-1.5716 0.82947-2.3574 2.794-0.7422 1.9209-0.8731 5.3261z"/><path d="m1154.9 81.648q-3.6235 0-5.6753-0.74216-2.0519-0.78581-2.9686-2.5321-0.8732-1.7463-0.8732-4.8022 0-3.2742 0.8732-5.0641 0.9167-1.7899 2.9249-2.5321 2.0519-0.78581 5.719-0.78581h6.4611v-2.2701q0-2.5321-0.6112-3.8854-0.5675-1.397-1.9645-2.0082-1.3533-0.61119-3.8854-0.61119-1.8772 0-3.0123 0.39291-1.1351 0.39291-1.8336 1.3533-0.6548 0.96044-1.135 2.7067l-2.925-0.6985q0.6985-2.5321 1.7463-3.9727 1.0477-1.4407 2.7503-2.0955t4.4093-0.65484q3.6235 0 5.6753 0.96044 2.0519 0.91678 2.925 2.9686 0.9168 2.0082 0.9168 5.5443v11.089q0 1.7899 0.3056 2.7067 0.3055 0.87313 1.004 1.2224 0.6985 0.30559 2.0956 0.26194v2.8377q-2.4448 0.04366-3.6672-0.61119-1.2224-0.6985-1.7462-2.4884-1.2224 2.0955-2.8813 2.925-1.659 0.78581-4.6276 0.78581zm0-2.794q2.5321 0 3.8854-0.65484 1.397-0.6985 1.9645-2.2701 0.6112-1.6153 0.6112-4.4966v-3.4488h-6.4611q-2.5757 0-3.9291 0.48022-1.3533 0.43656-1.9645 1.6589-0.5675 1.1787-0.5675 3.4488 0 2.0518 0.5675 3.1869 0.5675 1.1351 1.9645 1.6153t3.9291 0.48022z"/><path d="m1187.7 81.648q-2.9249 0-4.6712-1.0041-1.7026-1.0041-2.4447-3.1433-0.7422-2.1392-0.7422-5.7626v-15.018h-5.4134v-2.8377h5.4134v-7.7708h3.056v7.7708h9.0805v2.8377h-9.0805v15.018q0 3.8854 1.0477 5.5007 1.0914 1.6153 3.7544 1.6153 2.2702 0 3.2306-0.52388 0.9604-0.56753 1.5716-2.1828l2.8377 0.96044q-0.8731 2.5757-2.5321 3.5798-1.6589 0.96044-5.1078 0.96044z"/><path d="m1212.9 81.648q-3.2743 0-5.1078-0.96044-1.8336-0.96044-2.6194-3.1433-0.7858-2.1828-0.7858-6.0682v-17.419h3.0559v17.419q0 2.8813 0.4802 4.4529 0.5239 1.5716 1.659 2.2701 1.1787 0.65484 3.3179 0.65484 2.9249 0 4.4966-0.56753 1.6152-0.56753 2.2701-1.8772 0.6548-1.3097 0.6548-3.7544v-18.598h3.056v26.98h-3.056v-1.9209q-1.2223 1.397-2.8813 1.9645-1.6153 0.56753-4.5402 0.56753z"/><path d="m1237.4 54.057v4.322q0.8295-1.9645 2.794-3.4488 2.0082-1.4843 4.4966-1.4843 3.2305 0 4.9331 1.266 1.7463 1.2224 3.056 4.4529l-2.7067 1.2224q-0.8731-2.4011-1.9645-3.2742-1.0914-0.87313-3.3179-0.87313-2.5757 0-4.2347 1.528-1.6153 1.4843-2.3574 3.7108-0.6985 2.1828-0.6985 4.4093v15.149h-3.056v-26.98z"/><path d="m1271.4 53.446q3.8417 0 5.9372 1.397 2.1392 1.3533 3.0559 4.4966 0.9168 3.0996 0.8732 8.6439h-17.375q0.087 4.191 0.7858 6.5484 0.6985 2.3138 2.2701 3.3179 1.6153 1.0041 4.453 1.0041 2.4884 0 3.9727-0.74216 1.4843-0.78581 3.1432-2.9686l2.4448 1.6153q-1.9646 2.7503-4.0601 3.8418-2.0518 1.0478-5.5006 1.0478-4.0164 0-6.3302-1.3533-2.2701-1.3533-3.2742-4.3656-0.9605-3.0559-0.9605-8.382t0.9605-8.3383q1.0041-3.0559 3.2742-4.4093 2.3138-1.3533 6.3302-1.3533zm6.7667 11.744q-0.2183-3.4488-0.9168-5.3697t-2.0955-2.7503q-1.3533-0.82947-3.7544-0.82947-2.6631 0-4.2347 0.82947-1.5716 0.82947-2.3574 2.794-0.7422 1.9209-0.8732 5.3261z"/><path d="m1307.8 78.243v2.794h-15.454v-2.794h6.1992v-24.797q-2.7067 2.3574-7.0723 2.3574v-2.8377q3.3179 0 5.1951-1.7899 1.8772-1.8336 1.8772-5.0641h3.056v32.131z"/></g></g></svg>
