<?xml version="1.0" encoding="UTF-8"?>
<svg width="538.81" height="193.05" version="1.1" viewBox="0 0 538.81 193.05" xmlns="http://www.w3.org/2000/svg"><g transform="matrix(.32 0 0 .32 -1.355e-7 -76.835)"><path d="m241.61 541.75h100.94" fill="none" stroke="#000" stroke-miterlimit="10" stroke-width="3.0014"/><path d="m358.3 541.75-21.01 10.505 5.2524-10.505-5.2524-10.505z"/><g stroke-width="3.0014"><path d="m358.3 541.75-21.01 10.505 5.2524-10.505-5.2524-10.505z" fill="none" stroke="#000" stroke-miterlimit="10"/><path d="m1.5007 481.72h240.11v120.05h-240.11z" fill="none" stroke="#000" stroke-miterlimit="10"/><text x="91.241615" y="561.25635" fill="#000000" font-family="monospace" font-size="48.022px" xml:space="preserve"><tspan x="91.241615 120.05484" y="561.25635" font-family="monospace" stroke-width="3.0014">C0</tspan></text><path d="m601.77 541.75h100.94" fill="none" stroke="#000" stroke-miterlimit="10"/></g><path d="m718.47 541.75-21.01 10.505 5.2524-10.505-5.2524-10.505z"/><g stroke-width="3.0014"><path d="m718.47 541.75-21.01 10.505 5.2524-10.505-5.2524-10.505z" fill="none" stroke="#000" stroke-miterlimit="10"/><path d="m361.67 481.72h240.11v120.05h-240.11z" fill="none" stroke="#000" stroke-miterlimit="10"/><text x="451.40613" y="561.25635" fill="#000000" font-family="monospace" font-size="48.022px" xml:space="preserve"><tspan x="451.40613 480.21933" y="561.25635" font-family="monospace" stroke-width="3.0014">C1</tspan></text><path d="m1562.2 721.83v-100.94" fill="none" stroke="#000" stroke-miterlimit="10"/></g><path d="m1562.2 605.14 10.505 21.01-10.505-5.2524-10.505 5.2524z"/><g stroke-width="3.0014"><path d="m1562.2 605.14 10.505 21.01-10.505-5.2524-10.505 5.2524z" fill="none" stroke="#000" stroke-miterlimit="10"/><path d="m1460.2 721.83h204.09c1.1823 0 2.3534 0.11525 3.5132 0.346 1.1595 0.2308 2.2856 0.57224 3.378 1.0247 1.0923 0.45245 2.1301 1.0072 3.1133 1.6641 0.9832 0.65697 1.8929 1.4035 2.7291 2.2396 0.8361 0.83612 1.5826 1.7457 2.2395 2.7288 0.6567 0.98325 1.2115 2.021 1.6641 3.1134 0.4525 1.0924 0.7941 2.2185 1.0248 3.3782 0.2308 1.1597 0.3462 2.3308 0.3462 3.5133v84.038c0 1.1824-0.1156 2.3534-0.3462 3.5131-0.2306 1.1598-0.5723 2.2858-1.0248 3.3783-0.4526 1.0924-1.0074 2.1302-1.6641 3.1133-0.6569 0.98319-1.4034 1.8928-2.2395 2.729-0.8362 0.83609-1.7459 1.5826-2.729 2.2395-0.9831 0.657-2.0211 1.2117-3.1134 1.6642-1.0924 0.45249-2.2185 0.79404-3.378 1.0248-1.1598 0.23074-2.3309 0.34615-3.5132 0.34615h-204.09c-1.1824 0-2.3536-0.11556-3.5132-0.34615-1.1598-0.23081-2.2859-0.57227-3.3783-1.0248-1.0925-0.45246-2.1302-1.0073-3.1134-1.6643-0.9832-0.65682-1.8928-1.4033-2.7289-2.2394-0.8362-0.83615-1.5827-1.7458-2.2396-2.729-0.657-0.98307-1.2117-2.0208-1.6641-3.1133-0.4526-1.0924-0.7942-2.2185-1.0247-3.3783-0.2308-1.1597-0.3461-2.3307-0.346-3.5131v-84.038c-1e-4 -1.1825 0.1153-2.3536 0.3459-3.5134 0.2305-1.1597 0.5722-2.2858 1.0248-3.3782 0.4524-1.0924 1.0071-2.1302 1.6641-3.1134 0.6569-0.98313 1.4034-1.8927 2.2396-2.7288 0.8361-0.83612 1.7457-1.5826 2.7289-2.2395 0.9832-0.65697 2.0209-1.2117 3.1134-1.6641 1.0924-0.45249 2.2185-0.79408 3.3783-1.0248 1.1596-0.23069 2.3308-0.346 3.5132-0.346z" fill="none" stroke="#000" stroke-miterlimit="10"/><text x="1474.2732" y="801.36603" fill="#000000" font-family="monospace" font-size="48.022px" xml:space="preserve"><tspan x="1474.2732 1503.0864 1531.8997 1560.7129 1589.5261 1618.3394" y="801.36603" font-family="monospace" stroke-width="3.0014">master</tspan></text><path d="m1562.2 361.67v100.94" fill="none" stroke="#000" stroke-miterlimit="10"/></g><path d="m1562.2 478.36-10.505-21.01 10.505 5.2524 10.505-5.2524z"/><g stroke-width="3.0014"><path d="m1562.2 478.36-10.505-21.01 10.505 5.2524 10.505-5.2524z" fill="none" stroke="#000" stroke-miterlimit="10"/><path d="m1460.2 241.61h204.09c1.1823 0 2.3534 0.11534 3.5132 0.346 1.1595 0.23068 2.2856 0.57225 3.378 1.0248 1.0923 0.4525 2.1301 1.0072 3.1133 1.6642 0.9832 0.65692 1.8929 1.4034 2.7291 2.2396 0.8361 0.8361 1.5826 1.7457 2.2395 2.7289 0.6567 0.98315 1.2115 2.021 1.6641 3.1134 0.4525 1.0924 0.7941 2.2185 1.0248 3.3782 0.2308 1.1597 0.3462 2.3308 0.3462 3.5132v84.038c0 1.1824-0.1156 2.3535-0.3462 3.5132-0.2306 1.1597-0.5723 2.2858-1.0248 3.3783-0.4526 1.0924-1.0074 2.1302-1.6641 3.1134-0.6569 0.98313-1.4034 1.8928-2.2395 2.7289-0.8362 0.8361-1.7459 1.5826-2.729 2.2396-0.9831 0.65688-2.0211 1.2116-3.1134 1.6641-1.0924 0.45248-2.2185 0.7941-3.378 1.0248-1.1598 0.2308-2.3309 0.34602-3.5132 0.34605h-204.09c-1.1824-3e-5 -2.3536-0.11525-3.5132-0.34605-1.1598-0.23081-2.2859-0.57231-3.3783-1.0248-1.0925-0.45252-2.1302-1.0072-3.1134-1.6642-0.9832-0.65688-1.8928-1.4034-2.7289-2.2395-0.8362-0.83612-1.5827-1.7458-2.2396-2.7289-0.657-0.98316-1.2117-2.021-1.6641-3.1134-0.4526-1.0924-0.7942-2.2185-1.0247-3.3782-0.2308-1.1597-0.3461-2.3308-0.346-3.5132v-84.038c-1e-4 -1.1825 0.1153-2.3535 0.3459-3.5132 0.2305-1.1597 0.5722-2.2858 1.0248-3.3782 0.4524-1.0924 1.0071-2.1303 1.6641-3.1134 0.6569-0.98316 1.4034-1.8928 2.2396-2.7289 0.8361-0.83612 1.7457-1.5826 2.7289-2.2396 0.9832-0.65694 2.0209-1.2116 3.1134-1.6642 1.0924-0.45251 2.2185-0.79408 3.3783-1.0248 1.1596-0.23066 2.3308-0.346 3.5132-0.346z" fill="none" stroke="#000" stroke-miterlimit="10"/><text x="1459.8666" y="321.1467" fill="#000000" font-family="monospace" font-size="48.022px" xml:space="preserve"><tspan x="1459.8666 1488.6798 1517.493 1546.3063 1575.1195 1603.9327 1632.746" y="321.1467" font-family="monospace" stroke-width="3.0014">feature</tspan></text><path d="m961.94 541.75h100.94" fill="none" stroke="#000" stroke-miterlimit="10"/></g><path d="m1078.6 541.75-21.01 10.505 5.2524-10.505-5.2524-10.505z"/><g stroke-width="3.0014"><path d="m1078.6 541.75-21.01 10.505 5.2524-10.505-5.2524-10.505z" fill="none" stroke="#000" stroke-miterlimit="10"/><path d="m721.83 481.72h240.11v120.05h-240.11z" fill="none" stroke="#000" stroke-miterlimit="10"/><text x="811.57056" y="561.25635" fill="#000000" font-family="monospace" font-size="48.022px" xml:space="preserve"><tspan x="811.57056 840.38379" y="561.25635" font-family="monospace" stroke-width="3.0014">C3</tspan></text><path d="m1322.1 541.75h100.94" fill="none" stroke="#000" stroke-miterlimit="10"/></g><path d="m1438.8 541.75-21.01 10.505 5.2524-10.505-5.2524-10.505z"/><g stroke-width="3.0014"><path d="m1438.8 541.75-21.01 10.505 5.2524-10.505-5.2524-10.505z" fill="none" stroke="#000" stroke-miterlimit="10"/><path d="m1082 481.72h240.11v120.05h-240.11z" fill="none" stroke="#000" stroke-miterlimit="10"/><text x="1171.7351" y="561.25635" fill="#000000" font-family="monospace" font-size="48.022px" xml:space="preserve"><tspan x="1171.7351 1200.5483" y="561.25635" font-family="monospace" stroke-width="3.0014">C4</tspan></text><path d="m1442.2 481.72h240.11v120.05h-240.11z" fill="none" stroke="#000" stroke-miterlimit="10"/><text x="1517.493" y="561.25635" fill="#000000" font-family="monospace" font-size="48.022px" xml:space="preserve"><tspan x="1517.493 1546.3063 1575.1195" y="561.25635" font-family="monospace" stroke-width="3.0014">C2'</tspan></text></g></g></svg>
