<?xml version="1.0" encoding="UTF-8"?>
<svg width="346.72" height="269.88" version="1.1" viewBox="0 0 346.72 269.88" xmlns="http://www.w3.org/2000/svg"><g transform="scale(.32)"><path d="m241.61 541.75h100.94" fill="none" stroke="#000" stroke-miterlimit="10" stroke-width="3.0014"/><path d="m358.3 541.75-21.01 10.505 5.2524-10.505-5.2524-10.505z"/><g stroke-width="3.0014"><path d="m358.3 541.75-21.01 10.505 5.2524-10.505-5.2524-10.505z" fill="none" stroke="#000" stroke-miterlimit="10"/><path d="m1.5007 481.72h240.11v120.05h-240.11z" fill="none" stroke="#000" stroke-miterlimit="10"/><text x="91.241615" y="561.25635" fill="#000000" font-family="monospace" font-size="48.022px" xml:space="preserve"><tspan x="91.241615 120.05484" y="561.25635" font-family="monospace" stroke-width="3.0014">C0</tspan></text><path d="m601.77 541.75 226.6-226.6" fill="none" stroke="#000" stroke-miterlimit="10"/></g><path d="m839.51 304.01-7.4433 22.3-3.6917-11.165-11.165-3.6917z"/><path d="m839.51 304.01-7.4433 22.3-3.6917-11.165-11.165-3.6917z" fill="none" stroke="#000" stroke-miterlimit="10" stroke-width="3.0014"/><path d="m601.77 541.75h220.99" fill="none" stroke="#000" stroke-miterlimit="10" stroke-width="3.0014"/><path d="m838.52 541.75-21.01 10.505 5.2524-10.505-5.2524-10.505z"/><g stroke-width="3.0014"><path d="m838.52 541.75-21.01 10.505 5.2524-10.505-5.2524-10.505z" fill="none" stroke="#000" stroke-miterlimit="10"/><path d="m361.67 481.72h240.11v120.05h-240.11z" fill="none" stroke="#000" stroke-miterlimit="10"/><text x="451.40613" y="561.25635" fill="#000000" font-family="monospace" font-size="48.022px" xml:space="preserve"><tspan x="451.40613 480.21933" y="561.25635" font-family="monospace" stroke-width="3.0014">C1</tspan></text><path d="m841.88 241.61h240.11v120.05h-240.11z" fill="none" stroke="#000" stroke-miterlimit="10"/><text x="931.62543" y="321.1467" fill="#000000" font-family="monospace" font-size="48.022px" xml:space="preserve"><tspan x="931.62543 960.43866" y="321.1467" font-family="monospace" stroke-width="3.0014">C2</tspan></text><path d="m961.94 721.83v-100.94" fill="none" stroke="#000" stroke-miterlimit="10"/></g><path d="m961.94 605.14 10.505 21.01-10.505-5.2524-10.505 5.2524z"/><g stroke-width="3.0014"><path d="m961.94 605.14 10.505 21.01-10.505-5.2524-10.505 5.2524z" fill="none" stroke="#000" stroke-miterlimit="10"/><path d="m859.89 721.83h204.09c1.1824 0 2.3535 0.11525 3.5132 0.346 1.1597 0.2308 2.2857 0.57224 3.3782 1.0247 1.0924 0.45245 2.1303 1.0072 3.1134 1.6641 0.9831 0.65697 1.8928 1.4035 2.729 2.2396 0.836 0.83612 1.5825 1.7457 2.2393 2.7288 0.657 0.98325 1.2117 2.021 1.6642 3.1134 0.4526 1.0924 0.7941 2.2185 1.0248 3.3782s0.3461 2.3308 0.3461 3.5133v84.038c0 1.1824-0.1152 2.3534-0.3459 3.5131-0.2308 1.1598-0.5724 2.2858-1.0249 3.3783s-1.0072 2.1302-1.6642 3.1133c-0.6569 0.98319-1.4034 1.8928-2.2394 2.729-0.8362 0.83609-1.7459 1.5826-2.729 2.2395-0.9831 0.657-2.021 1.2117-3.1134 1.6642-1.0925 0.45249-2.2185 0.79404-3.3782 1.0248-1.1597 0.23074-2.3308 0.34615-3.5132 0.34615h-204.09c-1.1824 0-2.3535-0.11556-3.5133-0.34615-1.1597-0.23081-2.2858-0.57227-3.3782-1.0248-1.0925-0.45246-2.1302-1.0073-3.1134-1.6643-0.98307-0.65682-1.8927-1.4033-2.7289-2.2394-0.83616-0.83615-1.5828-1.7458-2.2397-2.729-0.65691-0.98307-1.2116-2.0208-1.6641-3.1133-0.45257-1.0924-0.79413-2.2185-1.0248-3.3783-0.23063-1.1597-0.34594-2.3307-0.34594-3.5131v-84.038c0-1.1825 0.11525-2.3536 0.34594-3.5134 0.2308-1.1597 0.57221-2.2858 1.0248-3.3782 0.45246-1.0924 1.0072-2.1302 1.6641-3.1134 0.65691-0.98313 1.4035-1.8927 2.2397-2.7288 0.83618-0.83612 1.7458-1.5826 2.7289-2.2395 0.98319-0.65697 2.021-1.2117 3.1134-1.6641 1.0924-0.45249 2.2185-0.79408 3.3782-1.0248 1.1598-0.23069 2.3309-0.346 3.5133-0.346z" fill="none" stroke="#000" stroke-miterlimit="10"/><text x="873.99908" y="801.36603" fill="#000000" font-family="monospace" font-size="48.022px" xml:space="preserve"><tspan x="873.99908 902.81226 931.62549 960.43872 989.25195 1018.0652" y="801.36603" font-family="monospace" stroke-width="3.0014">master</tspan></text><path d="m961.94 121.56v100.94" fill="none" stroke="#000" stroke-miterlimit="10"/></g><path d="m961.94 238.25-10.505-21.01 10.505 5.2524 10.505-5.2524z"/><g stroke-width="3.0014"><path d="m961.94 238.25-10.505-21.01 10.505 5.2524 10.505-5.2524z" fill="none" stroke="#000" stroke-miterlimit="10"/><path d="m859.89 1.5007h204.09c1.1824 0 2.3535 0.11534 3.5132 0.34602 1.1597 0.23068 2.2857 0.57227 3.3782 1.0248 1.0924 0.4525 2.1303 1.0072 3.1134 1.6641s1.8928 1.4034 2.729 2.2396c0.836 0.83611 1.5825 1.7457 2.2393 2.7289 0.657 0.98316 1.2117 2.021 1.6642 3.1134 0.4526 1.0924 0.7941 2.2185 1.0248 3.3782 0.2307 1.1597 0.3461 2.3308 0.3461 3.5132v84.038c0 1.1824-0.1152 2.3535-0.3459 3.5132-0.2308 1.1597-0.5724 2.2858-1.0249 3.3782-0.4525 1.0924-1.0072 2.1302-1.6642 3.1134-0.6569 0.98317-1.4034 1.8928-2.2394 2.7289-0.8362 0.83611-1.7459 1.5826-2.729 2.2395s-2.021 1.2116-3.1134 1.6641c-1.0925 0.4525-2.2185 0.79409-3.3782 1.0248-1.1597 0.23068-2.3308 0.34602-3.5132 0.34603h-204.09c-1.1824-1e-5 -2.3535-0.11534-3.5133-0.34603-1.1597-0.23069-2.2858-0.57228-3.3782-1.0248-1.0925-0.4525-2.1302-1.0072-3.1134-1.6641-0.98307-0.65693-1.8927-1.4034-2.7289-2.2396-0.83616-0.83611-1.5828-1.7458-2.2397-2.7289-0.65691-0.98315-1.2116-2.0209-1.6641-3.1134-0.45257-1.0924-0.79413-2.2185-1.0248-3.3782-0.23063-1.1597-0.34594-2.3308-0.34594-3.5132v-84.038c0-1.1824 0.11525-2.3535 0.34594-3.5132 0.2308-1.1597 0.57221-2.2858 1.0248-3.3782 0.45246-1.0924 1.0072-2.1302 1.6641-3.1134 0.65691-0.98316 1.4035-1.8928 2.2397-2.7289 0.83618-0.83611 1.7458-1.5826 2.7289-2.2396 0.98319-0.65693 2.021-1.2116 3.1134-1.6641 1.0924-0.4525 2.2185-0.79409 3.3782-1.0248 1.1598-0.23068 2.3309-0.34602 3.5133-0.34602z" fill="none" stroke="#000" stroke-miterlimit="10"/><text x="859.59241" y="81.03701" fill="#000000" font-family="monospace" font-size="48.022px" xml:space="preserve"><tspan x="859.59241 888.40564 917.21887 946.0321 974.84534 1003.6586 1032.4718" y="81.03701" font-family="monospace" stroke-width="3.0014">feature</tspan></text><path d="m841.88 481.72h240.11v120.05h-240.11z" fill="none" stroke="#000" stroke-miterlimit="10"/><text x="931.62543" y="561.25635" fill="#000000" font-family="monospace" font-size="48.022px" xml:space="preserve"><tspan x="931.62543 960.43866" y="561.25635" font-family="monospace" stroke-width="3.0014">C3</tspan></text></g></g></svg>
