<?xml version="1.0" encoding="UTF-8"?>
<svg width="461.97" height="346.72" version="1.1" viewBox="0 0 461.97 346.72" xmlns="http://www.w3.org/2000/svg"><g transform="scale(.32)"><path d="m241.61 541.75h100.94" fill="none" stroke="#000" stroke-miterlimit="10" stroke-width="3.0014"/><path d="m358.3 541.75-21.01 10.505 5.2524-10.505-5.2524-10.505z"/><g stroke-width="3.0014"><path d="m358.3 541.75-21.01 10.505 5.2524-10.505-5.2524-10.505z" fill="none" stroke="#000" stroke-miterlimit="10"/><path d="m1.5007 481.72h240.11v120.05h-240.11z" fill="none" stroke="#000" stroke-miterlimit="10"/><text x="91.241615" y="561.25635" fill="#000000" font-family="monospace" font-size="48.022px" xml:space="preserve"><tspan x="91.241615 120.05484" y="561.25635" font-family="monospace" stroke-width="3.0014">C0</tspan></text><path d="m601.77 541.75h100.94" fill="none" stroke="#000" stroke-miterlimit="10"/></g><path d="m718.47 541.75-21.01 10.505 5.2524-10.505-5.2524-10.505z"/><g stroke-width="3.0014"><path d="m718.47 541.75-21.01 10.505 5.2524-10.505-5.2524-10.505z" fill="none" stroke="#000" stroke-miterlimit="10"/><path d="m361.67 481.72h240.11v120.05h-240.11z" fill="none" stroke="#000" stroke-miterlimit="10"/><text x="451.40613" y="561.25635" fill="#000000" font-family="monospace" font-size="48.022px" xml:space="preserve"><tspan x="451.40613 480.21933" y="561.25635" font-family="monospace" stroke-width="3.0014">C1</tspan></text><path d="m961.94 541.75 226.6 226.6" fill="none" stroke="#000" stroke-miterlimit="10"/></g><path d="m1199.7 779.49-22.3-7.4433 11.165-3.6917 3.6917-11.165z"/><path d="m1199.7 779.49-22.3-7.4433 11.165-3.6917 3.6917-11.165z" fill="none" stroke="#000" stroke-miterlimit="10" stroke-width="3.0014"/><path d="m961.94 541.75h220.99" fill="none" stroke="#000" stroke-miterlimit="10" stroke-width="3.0014"/><path d="m1198.7 541.75-21.01 10.505 5.2524-10.505-5.2524-10.505z"/><g stroke-width="3.0014"><path d="m1198.7 541.75-21.01 10.505 5.2524-10.505-5.2524-10.505z" fill="none" stroke="#000" stroke-miterlimit="10"/><path d="m721.83 481.72h240.11v120.05h-240.11z" fill="none" stroke="#000" stroke-miterlimit="10"/><text x="811.57056" y="561.25635" fill="#000000" font-family="monospace" font-size="48.022px" xml:space="preserve"><tspan x="811.57056 840.38379" y="561.25635" font-family="monospace" stroke-width="3.0014">C2</tspan></text><path d="m1202 721.83h240.11v120.05h-240.11z" fill="none" stroke="#000" stroke-miterlimit="10"/><text x="1291.7899" y="801.36603" fill="#000000" font-family="monospace" font-size="48.022px" xml:space="preserve"><tspan x="1291.7899 1320.6031" y="801.36603" font-family="monospace" stroke-width="3.0014">C3</tspan></text><path d="m1322.1 121.56v100.94" fill="none" stroke="#000" stroke-miterlimit="10"/></g><path d="m1322.1 238.25-10.505-21.01 10.505 5.2524 10.505-5.2524z"/><g stroke-width="3.0014"><path d="m1322.1 238.25-10.505-21.01 10.505 5.2524 10.505-5.2524z" fill="none" stroke="#000" stroke-miterlimit="10"/><path d="m1220.1 1.5007h204.09c1.1824 0 2.3534 0.11534 3.5131 0.34602 1.1597 0.23068 2.2858 0.57227 3.3782 1.0248 1.0924 0.4525 2.1302 1.0072 3.1135 1.6641 0.9832 0.65693 1.8928 1.4034 2.7288 2.2396 0.8361 0.83611 1.5826 1.7457 2.2395 2.7289 0.6569 0.98316 1.2117 2.021 1.6642 3.1134 0.4525 1.0924 0.7941 2.2185 1.0248 3.3782 0.2306 1.1597 0.346 2.3308 0.3461 3.5132v84.038c-1e-4 1.1824-0.1155 2.3535-0.3462 3.5132-0.2305 1.1597-0.5722 2.2858-1.0247 3.3782-0.4525 1.0924-1.0073 2.1302-1.6642 3.1134-0.6569 0.98317-1.4034 1.8928-2.2395 2.7289-0.836 0.83611-1.7456 1.5826-2.7289 2.2395-0.9832 0.65693-2.021 1.2116-3.1134 1.6641s-2.2185 0.79409-3.3782 1.0248c-1.1597 0.23068-2.3307 0.34602-3.5131 0.34603h-204.09c-1.1826-1e-5 -2.3537-0.11534-3.5134-0.34603-1.1598-0.23069-2.2858-0.57228-3.3783-1.0248s-2.1303-1.0072-3.1134-1.6641c-0.9831-0.65693-1.8927-1.4034-2.7288-2.2396s-1.5826-1.7458-2.2395-2.7289c-0.657-0.98315-1.2118-2.0209-1.6642-3.1134-0.4525-1.0924-0.7941-2.2185-1.0248-3.3782-0.2306-1.1597-0.3459-2.3308-0.3459-3.5132v-84.038c0-1.1824 0.1153-2.3535 0.346-3.5132 0.2308-1.1597 0.5722-2.2858 1.0247-3.3782 0.4524-1.0924 1.0072-2.1302 1.6641-3.1134 0.657-0.98316 1.4035-1.8928 2.2396-2.7289 0.8361-0.83611 1.7457-1.5826 2.7289-2.2396 0.9831-0.65693 2.0208-1.2116 3.1133-1.6641 1.0925-0.4525 2.2185-0.79409 3.3783-1.0248 1.1597-0.23068 2.3308-0.34602 3.5134-0.34602z" fill="none" stroke="#000" stroke-miterlimit="10"/><text x="1234.1636" y="81.03701" fill="#000000" font-family="monospace" font-size="48.022px" xml:space="preserve"><tspan x="1234.1636 1262.9768 1291.79 1320.6033 1349.4165 1378.2297" y="81.03701" font-family="monospace" stroke-width="3.0014">master</tspan></text><path d="m1322.1 961.94v-100.94" fill="none" stroke="#000" stroke-miterlimit="10"/></g><path d="m1322.1 845.25 10.505 21.01-10.505-5.2524-10.505 5.2524z"/><g stroke-width="3.0014"><path d="m1322.1 845.25 10.505 21.01-10.505-5.2524-10.505 5.2524z" fill="none" stroke="#000" stroke-miterlimit="10"/><path d="m1220.1 961.94h204.09c1.1824 0 2.3534 0.11526 3.5131 0.34606 1.1597 0.23051 2.2858 0.57218 3.3782 1.0247 1.0924 0.45246 2.1302 1.0072 3.1135 1.6642 0.9832 0.65691 1.8928 1.4034 2.7288 2.2396 0.8361 0.83609 1.5826 1.7457 2.2395 2.7289 0.6569 0.9831 1.2117 2.0209 1.6642 3.1134 0.4525 1.0924 0.7941 2.2185 1.0248 3.3783 0.2305 1.1597 0.346 2.3307 0.3461 3.5132v84.038c-1e-4 1.1824-0.1155 2.3535-0.3462 3.5132-0.2305 1.1597-0.5722 2.2857-1.0247 3.3782-0.4525 1.0924-1.0073 2.1303-1.6642 3.1134s-1.4034 1.8928-2.2395 2.729c-0.836 0.836-1.7456 1.5825-2.7289 2.2393-0.9832 0.657-2.021 1.2117-3.1134 1.6642-1.0924 0.4526-2.2185 0.7941-3.3782 1.0248s-2.3307 0.3461-3.5131 0.3461h-204.09c-1.1826 0-2.3537-0.1152-3.5134-0.3459-1.1598-0.2308-2.2858-0.5724-3.3783-1.0249s-2.1303-1.0072-3.1134-1.6642c-0.9831-0.6569-1.8927-1.4034-2.7288-2.2394-0.8361-0.8362-1.5826-1.7459-2.2395-2.729-0.657-0.9831-1.2118-2.021-1.6642-3.1134-0.4525-1.0925-0.7941-2.2185-1.0248-3.3782-0.2306-1.1597-0.3459-2.3308-0.3459-3.5132v-84.038c0-1.1825 0.1153-2.3535 0.346-3.5132 0.2308-1.1598 0.5722-2.2858 1.0247-3.3783 0.4524-1.0925 1.0072-2.1303 1.6641-3.1134 0.657-0.98316 1.4035-1.8928 2.2396-2.7289 0.8361-0.83615 1.7457-1.5826 2.7289-2.2396 0.9831-0.657 2.0208-1.2117 3.1133-1.6642 1.0925-0.45249 2.2185-0.79404 3.3783-1.0247 1.1597-0.23074 2.3308-0.34606 3.5134-0.34606z" fill="none" stroke="#000" stroke-miterlimit="10"/><text x="1205.3503" y="1041.4757" fill="#000000" font-family="monospace" font-size="48.022px" xml:space="preserve"><tspan x="1205.3503 1234.1636 1262.9768 1291.7899 1320.6031 1349.4164 1378.2296 1407.0428" y="1041.4757" font-family="monospace" stroke-width="3.0014">feature1</tspan></text><path d="m1202 481.72h240.11v120.05h-240.11z" fill="none" stroke="#000" stroke-miterlimit="10"/><text x="1291.7899" y="561.25635" fill="#000000" font-family="monospace" font-size="48.022px" xml:space="preserve"><tspan x="1291.7899 1320.6031" y="561.25635" font-family="monospace" stroke-width="3.0014">C4</tspan></text><path d="m1322.1 361.67v100.94" fill="none" stroke="#000" stroke-miterlimit="10"/></g><path d="m1322.1 478.36-10.505-21.01 10.505 5.2524 10.505-5.2524z"/><g stroke-width="3.0014"><path d="m1322.1 478.36-10.505-21.01 10.505 5.2524 10.505-5.2524z" fill="none" stroke="#000" stroke-miterlimit="10"/><path d="m1220.1 241.61h204.09c1.1824 0 2.3534 0.11534 3.5131 0.346 1.1597 0.23068 2.2858 0.57225 3.3782 1.0248 1.0924 0.4525 2.1302 1.0072 3.1135 1.6642 0.9832 0.65692 1.8928 1.4034 2.7288 2.2396 0.8361 0.8361 1.5826 1.7457 2.2395 2.7289 0.6569 0.98315 1.2117 2.021 1.6642 3.1134 0.4525 1.0924 0.7941 2.2185 1.0248 3.3782 0.2305 1.1597 0.346 2.3308 0.3461 3.5132v84.038c-1e-4 1.1824-0.1155 2.3535-0.3462 3.5132-0.2305 1.1597-0.5722 2.2858-1.0247 3.3783-0.4525 1.0924-1.0073 2.1302-1.6642 3.1134-0.6569 0.98313-1.4034 1.8928-2.2395 2.7289-0.836 0.8361-1.7456 1.5826-2.7289 2.2396-0.9832 0.65688-2.021 1.2116-3.1134 1.6641-1.0924 0.45248-2.2185 0.7941-3.3782 1.0248-1.1597 0.2308-2.3307 0.34602-3.5131 0.34605h-204.09c-1.1826-3e-5 -2.3537-0.11525-3.5134-0.34605-1.1598-0.23081-2.2858-0.57231-3.3783-1.0248-1.0925-0.45252-2.1303-1.0072-3.1134-1.6642-0.9831-0.65688-1.8927-1.4034-2.7288-2.2395-0.8361-0.83612-1.5826-1.7458-2.2395-2.7289-0.657-0.98316-1.2118-2.021-1.6642-3.1134-0.4525-1.0924-0.7941-2.2185-1.0248-3.3782-0.2306-1.1597-0.3459-2.3308-0.3459-3.5132v-84.038c0-1.1825 0.1153-2.3535 0.346-3.5132 0.2308-1.1597 0.5722-2.2858 1.0247-3.3782 0.4524-1.0924 1.0072-2.1303 1.6641-3.1134 0.657-0.98316 1.4035-1.8928 2.2396-2.7289 0.8361-0.83612 1.7457-1.5826 2.7289-2.2396 0.9831-0.65694 2.0208-1.2116 3.1133-1.6642 1.0925-0.45251 2.2185-0.79408 3.3783-1.0248 1.1597-0.23066 2.3308-0.346 3.5134-0.346z" fill="none" stroke="#000" stroke-miterlimit="10"/><text x="1234.1636" y="321.1467" fill="#000000" font-family="monospace" font-size="48.022px" xml:space="preserve"><tspan x="1234.1636 1262.9768 1291.79 1320.6033 1349.4165 1378.2297" y="321.1467" font-family="monospace" stroke-width="3.0014">hotfix</tspan></text></g></g></svg>
