<?xml version="1.0" encoding="UTF-8"?>
<svg width="730.89" height="269.88" version="1.1" viewBox="0 0 730.89 269.88" xmlns="http://www.w3.org/2000/svg"><g transform="scale(.32)"><path d="m241.61 301.64h100.94" fill="none" stroke="#000" stroke-miterlimit="10" stroke-width="3.0014"/><path d="m358.3 301.64-21.01 10.505 5.2524-10.505-5.2524-10.505z"/><g stroke-width="3.0014"><path d="m358.3 301.64-21.01 10.505 5.2524-10.505-5.2524-10.505z" fill="none" stroke="#000" stroke-miterlimit="10"/><path d="m1.5007 241.61h240.11v120.05h-240.11z" fill="none" stroke="#000" stroke-miterlimit="10"/><text x="91.241615" y="321.1467" fill="#000000" font-family="monospace" font-size="48.022px" xml:space="preserve"><tspan x="91.241615 120.05484" y="321.1467" font-family="monospace" stroke-width="3.0014">C0</tspan></text><path d="m601.77 301.64h100.94" fill="none" stroke="#000" stroke-miterlimit="10"/></g><path d="m718.47 301.64-21.01 10.505 5.2524-10.505-5.2524-10.505z"/><g stroke-width="3.0014"><path d="m718.47 301.64-21.01 10.505 5.2524-10.505-5.2524-10.505z" fill="none" stroke="#000" stroke-miterlimit="10"/><path d="m361.67 241.61h240.11v120.05h-240.11z" fill="none" stroke="#000" stroke-miterlimit="10"/><text x="451.40613" y="321.1467" fill="#000000" font-family="monospace" font-size="48.022px" xml:space="preserve"><tspan x="451.40613 480.21933" y="321.1467" font-family="monospace" stroke-width="3.0014">C1</tspan></text><path d="m961.94 301.64 226.6 226.6" fill="none" stroke="#000" stroke-miterlimit="10"/></g><path d="m1199.7 539.38-22.3-7.4434 11.165-3.6917 3.6917-11.165z"/><path d="m1199.7 539.38-22.3-7.4434 11.165-3.6917 3.6917-11.165z" fill="none" stroke="#000" stroke-miterlimit="10" stroke-width="3.0014"/><path d="m961.94 301.64h220.99" fill="none" stroke="#000" stroke-miterlimit="10" stroke-width="3.0014"/><path d="m1198.7 301.64-21.01 10.505 5.2524-10.505-5.2524-10.505z"/><g stroke-width="3.0014"><path d="m1198.7 301.64-21.01 10.505 5.2524-10.505-5.2524-10.505z" fill="none" stroke="#000" stroke-miterlimit="10"/><path d="m721.83 241.61h240.11v120.05h-240.11z" fill="none" stroke="#000" stroke-miterlimit="10"/><text x="811.57056" y="321.1467" fill="#000000" font-family="monospace" font-size="48.022px" xml:space="preserve"><tspan x="811.57056 840.38379" y="321.1467" font-family="monospace" stroke-width="3.0014">C2</tspan></text><path d="m1442.2 541.75h100.94" fill="none" stroke="#000" stroke-miterlimit="10"/></g><path d="m1558.9 541.75-21.01 10.505 5.2524-10.505-5.2524-10.505z"/><g stroke-width="3.0014"><path d="m1558.9 541.75-21.01 10.505 5.2524-10.505-5.2524-10.505z" fill="none" stroke="#000" stroke-miterlimit="10"/><path d="m1202 481.72h240.11v120.05h-240.11z" fill="none" stroke="#000" stroke-miterlimit="10"/><text x="1291.7899" y="561.25635" fill="#000000" font-family="monospace" font-size="48.022px" xml:space="preserve"><tspan x="1291.7899 1320.6031" y="561.25635" font-family="monospace" stroke-width="3.0014">C3</tspan></text><path d="m2162.5 121.56v100.94" fill="none" stroke="#000" stroke-miterlimit="10"/></g><path d="m2162.5 238.25-10.505-21.01 10.505 5.2524 10.505-5.2524z"/><g stroke-width="3.0014"><path d="m2162.5 238.25-10.505-21.01 10.505 5.2524 10.505-5.2524z" fill="none" stroke="#000" stroke-miterlimit="10"/><path d="m2060.4 1.5007h204.09c1.1825 0 2.3535 0.11534 3.5131 0.34602 1.1595 0.23068 2.2856 0.57227 3.378 1.0248 1.0923 0.4525 2.1303 1.0072 3.1134 1.6641 0.9832 0.65693 1.8929 1.4034 2.729 2.2396 0.8361 0.83611 1.5826 1.7457 2.2395 2.7289 0.6569 0.98316 1.2116 2.021 1.6643 3.1134 0.4525 1.0924 0.7941 2.2185 1.0249 3.3782 0.2307 1.1597 0.3459 2.3308 0.3461 3.5132v84.038c-2e-4 1.1824-0.1156 2.3535-0.3463 3.5132-0.2305 1.1597-0.5722 2.2858-1.0247 3.3782-0.4527 1.0924-1.0074 2.1302-1.6641 3.1134-0.6571 0.98317-1.4036 1.8928-2.2397 2.7289s-1.7458 1.5826-2.729 2.2395c-0.9831 0.65693-2.0211 1.2116-3.1134 1.6641-1.0924 0.4525-2.2185 0.79409-3.378 1.0248-1.1596 0.23068-2.3306 0.34602-3.5131 0.34603h-204.09c-1.1825-1e-5 -2.3534-0.11534-3.5132-0.34603s-2.286-0.57228-3.3783-1.0248c-1.0924-0.4525-2.1302-1.0072-3.1135-1.6641-0.983-0.65693-1.8926-1.4034-2.7288-2.2396-0.8363-0.83611-1.5828-1.7458-2.2397-2.7289-0.6571-0.98315-1.2118-2.0209-1.6643-3.1134-0.4523-1.0924-0.7939-2.2185-1.0246-3.3782-0.2306-1.1597-0.3458-2.3308-0.3458-3.5132v-84.038c0-1.1824 0.1153-2.3535 0.3458-3.5132 0.2309-1.1597 0.5723-2.2858 1.0246-3.3782 0.4525-1.0924 1.0072-2.1302 1.6643-3.1134 0.6569-0.98316 1.4034-1.8928 2.2397-2.7289 0.8362-0.83611 1.7458-1.5826 2.7288-2.2396 0.9833-0.65693 2.0211-1.2116 3.1135-1.6641 1.0923-0.4525 2.2185-0.79409 3.3783-1.0248 1.1598-0.23068 2.3307-0.34602 3.5132-0.34602z" fill="none" stroke="#000" stroke-miterlimit="10"/><text x="2074.5474" y="81.03701" fill="#000000" font-family="monospace" font-size="48.022px" xml:space="preserve"><tspan x="2074.5474 2103.3606 2132.1738 2160.9871 2189.8003 2218.6135" y="81.03701" font-family="monospace" stroke-width="3.0014">master</tspan></text><path d="m1682.3 721.83v-100.94" fill="none" stroke="#000" stroke-miterlimit="10"/></g><path d="m1682.3 605.14 10.505 21.01-10.505-5.2524-10.505 5.2524z"/><g stroke-width="3.0014"><path d="m1682.3 605.14 10.505 21.01-10.505-5.2524-10.505 5.2524z" fill="none" stroke="#000" stroke-miterlimit="10"/><path d="m1580.2 721.83h204.09c1.1825 0 2.3534 0.11525 3.5132 0.346 1.1596 0.2308 2.2857 0.57224 3.378 1.0247 1.0924 0.45245 2.1301 1.0072 3.1133 1.6641 0.9832 0.65697 1.8929 1.4035 2.7291 2.2396 0.8361 0.83612 1.5826 1.7457 2.2395 2.7288 0.6568 0.98325 1.2115 2.021 1.6641 3.1134 0.4525 1.0924 0.7942 2.2185 1.0248 3.3782 0.2308 1.1597 0.346 2.3308 0.3462 3.5133v84.038c-2e-4 1.1824-0.1155 2.3534-0.3462 3.5131-0.2305 1.1598-0.5723 2.2858-1.0248 3.3783-0.4526 1.0924-1.0073 2.1302-1.6641 3.1133-0.6569 0.98319-1.4034 1.8928-2.2395 2.729-0.8362 0.83609-1.7457 1.5826-2.7289 2.2395-0.9832 0.657-2.0211 1.2117-3.1135 1.6642-1.0923 0.45249-2.2184 0.79404-3.378 1.0248-1.1598 0.23074-2.3307 0.34615-3.5132 0.34615h-204.09c-1.1825 0-2.3535-0.11556-3.5132-0.34615-1.1598-0.23081-2.286-0.57227-3.3784-1.0248-1.0924-0.45246-2.1303-1.0073-3.1135-1.6643-0.9832-0.65682-1.8927-1.4033-2.7288-2.2394-0.8362-0.83615-1.5827-1.7458-2.2395-2.729-0.657-0.98307-1.2118-2.0208-1.6642-3.1133-0.4525-1.0924-0.7941-2.2185-1.0248-3.3783-0.2306-1.1597-0.346-2.3307-0.3458-3.5131v-84.038c-2e-4 -1.1825 0.1152-2.3536 0.3458-3.5134 0.2308-1.1597 0.5723-2.2858 1.0248-3.3782 0.4524-1.0924 1.0072-2.1302 1.6642-3.1134 0.6568-0.98313 1.4033-1.8927 2.2395-2.7288 0.8361-0.83612 1.7456-1.5826 2.7288-2.2395 0.9832-0.65697 2.0211-1.2117 3.1135-1.6641 1.0924-0.45249 2.2186-0.79408 3.3784-1.0248 1.1597-0.23069 2.3307-0.346 3.5132-0.346z" fill="none" stroke="#000" stroke-miterlimit="10"/><text x="1565.5148" y="801.36603" fill="#000000" font-family="monospace" font-size="48.022px" xml:space="preserve"><tspan x="1565.5148 1594.328 1623.1412 1651.9545 1680.7677 1709.5809 1738.3942 1767.2074" y="801.36603" font-family="monospace" stroke-width="3.0014">feature1</tspan></text><path d="m1442.2 301.64h581.16" fill="none" stroke="#000" stroke-miterlimit="10"/></g><path d="m2039.1 301.64-21.01 10.505 5.2524-10.505-5.2524-10.505z"/><g stroke-width="3.0014"><path d="m2039.1 301.64-21.01 10.505 5.2524-10.505-5.2524-10.505z" fill="none" stroke="#000" stroke-miterlimit="10"/><path d="m1202 241.61h240.11v120.05h-240.11z" fill="none" stroke="#000" stroke-miterlimit="10"/><text x="1291.7899" y="321.1467" fill="#000000" font-family="monospace" font-size="48.022px" xml:space="preserve"><tspan x="1291.7899 1320.6031" y="321.1467" font-family="monospace" stroke-width="3.0014">C4</tspan></text><path d="m1802.3 541.75 226.6-226.6" fill="none" stroke="#000" stroke-miterlimit="10"/></g><path d="m2040.1 304.01-7.4435 22.3-3.6917-11.165-11.165-3.6917z"/><g stroke-width="3.0014"><path d="m2040.1 304.01-7.4435 22.3-3.6917-11.165-11.165-3.6917z" fill="none" stroke="#000" stroke-miterlimit="10"/><path d="m1562.2 481.72h240.11v120.05h-240.11z" fill="none" stroke="#000" stroke-miterlimit="10"/><text x="1651.9543" y="561.25635" fill="#000000" font-family="monospace" font-size="48.022px" xml:space="preserve"><tspan x="1651.9543 1680.7676" y="561.25635" font-family="monospace" stroke-width="3.0014">C5</tspan></text><path d="m2042.4 241.61h240.11v120.05h-240.11z" fill="none" stroke="#000" stroke-miterlimit="10"/><text x="2132.1738" y="321.1467" fill="#000000" font-family="monospace" font-size="48.022px" xml:space="preserve"><tspan x="2132.1738 2160.9871" y="321.1467" font-family="monospace" stroke-width="3.0014">C6</tspan></text></g></g></svg>
