<?xml version="1.0" encoding="UTF-8"?>
<svg width="615.64" height="193.05" version="1.1" viewBox="0 0 615.64 193.05" xmlns="http://www.w3.org/2000/svg"><g transform="matrix(.32 0 0 .32 -1.355e-7 -76.835)"><path d="m241.61 541.75h100.94" fill="none" stroke="#000" stroke-miterlimit="10" stroke-width="3.0014"/><path d="m358.3 541.75-21.01 10.505 5.2524-10.505-5.2524-10.505z"/><path d="m358.3 541.75-21.01 10.505 5.2524-10.505-5.2524-10.505z" fill="none" stroke="#000" stroke-miterlimit="10" stroke-width="3.0014"/><path d="m1.5007 481.72h240.11v120.05h-240.11z" fill="none" stroke="#000" stroke-miterlimit="10" stroke-width="3.0014"/><g><text x="91.241615" y="561.25635" fill="#000000" font-family="monospace" font-size="48.022px" stroke-width="3.0014" xml:space="preserve"><tspan x="91.241615 120.05484" y="561.25635" font-family="monospace" stroke-width="3.0014">C0</tspan></text><path d="m600.71 540.69 2.1223-2.1223 2.1222 2.1222-2.1223 2.1223m8.4892-12.734 2.1223-2.1223 2.1222 2.1222-2.1223 2.1223m8.4892-12.734 2.1222-2.1222 2.1222 2.1222-2.1222 2.1222m8.4892-12.734 2.1223-2.1223 2.1222 2.1222-2.1223 2.1223m8.4892-12.734 2.1223-2.1223 2.1222 2.1222-2.1223 2.1223m8.4892-12.734 2.1223-2.1223 2.1223 2.1222-2.1223 2.1223m8.4892-12.734 2.1223-2.1223 2.1222 2.1222-2.1223 2.1223m8.4892-12.734 2.1223-2.1223 2.1223 2.1222-2.1223 2.1223m8.4892-12.734 2.1223-2.1223 2.1222 2.1223-2.1223 2.1223m8.4892-12.734 2.1223-2.1223 2.1222 2.1222-2.1223 2.1223m8.4892-12.734 2.1222-2.1223 2.1223 2.1223-2.1223 2.1222m8.4892-12.734 2.1223-2.1223 2.1222 2.1222-2.1223 2.1223m8.4892-12.734 2.1223-2.1223 2.1222 2.1222-2.1223 2.1223m8.4892-12.734 2.1223-2.1223 2.1222 2.1222-2.1223 2.1223m8.4892-12.734 2.1223-2.1224 2.1223 2.1223-2.1224 2.1223m8.4892-12.734 2.1223-2.1223 2.1222 2.1223-2.1223 2.1223m8.4892-12.734 2.1222-2.1223 2.1222 2.1223-2.1222 2.1223m8.4892-12.734 2.1223-2.1223 2.1222 2.1223-2.1223 2.1223m8.4892-12.734 2.1222-2.1223 2.1223 2.1223-2.1223 2.1223m8.4892-12.734 2.1224-2.1223 2.1222 2.1223-2.1223 2.1223m8.4893-12.734 2.1222-2.1223 2.1222 2.1223-2.1222 2.1223m8.4892-12.734 2.1222-2.1223 2.1222 2.1223-2.1222 2.1223"/><path d="m839.51 304.01-7.4433 22.3-3.6917-11.165-11.165-3.6917z"/></g><path d="m839.51 304.01-7.4433 22.3-3.6917-11.165-11.165-3.6917z" fill="none" stroke="#000" stroke-miterlimit="10" stroke-width="3.0014"/><path d="m601.77 541.75h220.99" fill="none" stroke="#000" stroke-miterlimit="10" stroke-width="3.0014"/><path d="m838.52 541.75-21.01 10.505 5.2524-10.505-5.2524-10.505z"/><path d="m838.52 541.75-21.01 10.505 5.2524-10.505-5.2524-10.505z" fill="none" stroke="#000" stroke-miterlimit="10" stroke-width="3.0014"/><path d="m361.67 481.72h240.11v120.05h-240.11z" fill="none" stroke="#000" stroke-miterlimit="10" stroke-width="3.0014"/><g><text x="451.40613" y="561.25635" fill="#000000" font-family="monospace" font-size="48.022px" stroke-width="3.0014" xml:space="preserve"><tspan x="451.40613 480.21933" y="561.25635" font-family="monospace" stroke-width="3.0014">C1</tspan></text><path d="m856.89 240.11h3.0014v3.0014h-3.0014zm15.007 0h3.0014v3.0014h-3.0014zm15.007 0h3.0014v3.0014h-3.0014zm15.007 0h3.0014v3.0014h-3.0014zm15.007 0h3.0014v3.0014h-3.0014zm15.007 0h3.0014v3.0014h-3.0014zm15.007 0h3.0014v3.0014h-3.0014zm15.007 0h3.0014v3.0014h-3.0014zm15.007 0h3.0014v3.0014h-3.0014zm15.007 0h3.0014v3.0014h-3.0014zm15.007 0h3.0014v3.0014h-3.0014zm15.007 0h3.0014v3.0014h-3.0014zm15.007 0h3.0014v3.0014h-3.0014zm15.007 0h3.0014v3.0014h-3.0014zm15.007 0h3.0013v3.0014h-3.0013zm16.508 1.5007v3.0014h-3.0014v-3.0014zm0 15.007v3.0014h-3.0014v-3.0014zm0 15.007v3.0014h-3.0014v-3.0014zm0 15.007v3.0014h-3.0014v-3.0014zm0 15.007v3.0014h-3.0014v-3.0014zm0 15.007v3.0014h-3.0014v-3.0014zm0 15.007v3.0014h-3.0014v-3.0014zm0 15.007v3.0014h-3.0014v-3.0014zm-1.5007 16.508h-3.0014v-3.0014h3.0014zm-15.007 0h-3.0014v-3.0014h3.0014zm-15.007 0h-3.0014v-3.0014h3.0014zm-15.007 0h-3.0013v-3.0014h3.0013zm-15.007 0h-3.0014v-3.0014h3.0014zm-15.007 0h-3.0013v-3.0014h3.0013zm-15.007 0h-3.0014v-3.0014h3.0014zm-15.007 0h-3.0014v-3.0014h3.0014zm-15.007 0h-3.0014v-3.0014h3.0014zm-15.007 0h-3.0014v-3.0014h3.0014zm-15.007 0h-3.0014v-3.0014h3.0014zm-15.007 0h-3.0014v-3.0014h3.0014zm-15.007 0h-3.0014v-3.0014h3.0014zm-15.007 0h-3.0014v-3.0014h3.0014zm-15.007 0h-3.0014v-3.0014h3.0014zm-15.007 0h-3.0014v-3.0014h3.0014zm-16.508-1.5007v-3.0014h3.0014v3.0014zm0-15.007v-3.0014h3.0014v3.0014zm0-15.007v-3.0014h3.0014v3.0014zm0-15.007v-3.0014h3.0014v3.0014zm0-15.007v-3.0014h3.0014v3.0014zm0-15.007v-3.0014h3.0014v3.0014zm0-15.007v-3.0014h3.0014v3.0014zm0-15.007v-3.0014h3.0014v3.0014zm1.5007-16.508h3.0014v3.0014h-3.0014z"/><text x="931.62543" y="321.1467" fill="#000000" font-family="monospace" font-size="48.022px" stroke-width="3.0014" xml:space="preserve"><tspan x="931.62543 960.43866" y="321.1467" font-family="monospace" stroke-width="3.0014">C2</tspan></text></g><path d="m1442.2 721.83v-100.94" fill="none" stroke="#000" stroke-miterlimit="10" stroke-width="3.0014"/><path d="m1442.2 605.14 10.505 21.01-10.505-5.2524-10.505 5.2524z"/><g stroke-width="3.0014"><path d="m1442.2 605.14 10.505 21.01-10.505-5.2524-10.505 5.2524z" fill="none" stroke="#000" stroke-miterlimit="10"/><path d="m1340.1 721.83h204.09c1.1825 0 2.3535 0.11525 3.513 0.346 1.1598 0.2308 2.2861 0.57224 3.3784 1.0247 1.0924 0.45245 2.1303 1.0072 3.1135 1.6641 0.9832 0.65697 1.8927 1.4035 2.7288 2.2396s1.5826 1.7457 2.2395 2.7288c0.6569 0.98325 1.2116 2.021 1.6641 3.1134 0.4524 1.0924 0.7941 2.2185 1.0247 3.3782 0.2308 1.1597 0.3461 2.3308 0.3463 3.5133v84.038c-2e-4 1.1824-0.1156 2.3534-0.3463 3.5131-0.2305 1.1598-0.5723 2.2858-1.0247 3.3783-0.4525 1.0924-1.0072 2.1302-1.6641 3.1133-0.6569 0.98319-1.4034 1.8928-2.2395 2.729-0.8361 0.83609-1.7456 1.5826-2.7288 2.2395-0.9832 0.657-2.0211 1.2117-3.1135 1.6642-1.0923 0.45249-2.2186 0.79404-3.3784 1.0248-1.1595 0.23074-2.3305 0.34615-3.513 0.34615h-204.09c-1.1825 0-2.3536-0.11556-3.5134-0.34615-1.1597-0.23081-2.2858-0.57227-3.3783-1.0248-1.0924-0.45246-2.1303-1.0073-3.1134-1.6643-0.983-0.65682-1.8927-1.4033-2.7287-2.2394-0.8362-0.83615-1.5827-1.7458-2.2397-2.729-0.6569-0.98307-1.2116-2.0208-1.6641-3.1133-0.4526-1.0924-0.7941-2.2185-1.0248-3.3783-0.2306-1.1597-0.3459-2.3307-0.3458-3.5131v-84.038c-1e-4 -1.1825 0.1152-2.3536 0.3458-3.5134 0.2305-1.1597 0.5722-2.2858 1.0248-3.3782 0.4525-1.0924 1.0072-2.1302 1.6641-3.1134 0.657-0.98313 1.4035-1.8927 2.2397-2.7288 0.836-0.83612 1.7457-1.5826 2.7287-2.2395 0.9831-0.65697 2.021-1.2117 3.1134-1.6641 1.0925-0.45249 2.2186-0.79408 3.3783-1.0248 1.1598-0.23069 2.3309-0.346 3.5134-0.346z" fill="none" stroke="#000" stroke-miterlimit="10"/><text x="1354.2184" y="801.36603" fill="#000000" font-family="monospace" font-size="48.022px" xml:space="preserve"><tspan x="1354.2184 1383.0316 1411.8448 1440.6581 1469.4713 1498.2845" y="801.36603" font-family="monospace" stroke-width="3.0014">master</tspan></text><path d="m1802.3 361.67v100.94" fill="none" stroke="#000" stroke-miterlimit="10"/></g><path d="m1802.3 478.36-10.505-21.01 10.505 5.2524 10.505-5.2524z"/><g stroke-width="3.0014"><path d="m1802.3 478.36-10.505-21.01 10.505 5.2524 10.505-5.2524z" fill="none" stroke="#000" stroke-miterlimit="10"/><path d="m1700.3 241.61h204.09c1.1823 0 2.3533 0.11534 3.5131 0.346 1.1597 0.23068 2.2858 0.57225 3.3781 1.0248 1.0924 0.4525 2.1304 1.0072 3.1135 1.6642 0.9832 0.65692 1.8927 1.4034 2.729 2.2396 0.8359 0.8361 1.5824 1.7457 2.2393 2.7289 0.6571 0.98315 1.2118 2.021 1.6643 3.1134 0.4525 1.0924 0.7941 2.2185 1.0247 3.3782 0.2308 1.1597 0.3461 2.3308 0.3463 3.5132v84.038c-2e-4 1.1824-0.1156 2.3535-0.3463 3.5132-0.2305 1.1597-0.5722 2.2858-1.0247 3.3783-0.4525 1.0924-1.0072 2.1302-1.6643 3.1134-0.6569 0.98313-1.4034 1.8928-2.2393 2.7289-0.8363 0.8361-1.746 1.5826-2.7292 2.2396-0.9831 0.65688-2.0209 1.2116-3.1133 1.6641-1.0923 0.45248-2.2184 0.7941-3.3781 1.0248-1.1598 0.2308-2.3308 0.34602-3.5131 0.34605h-204.09c-1.1825-3e-5 -2.3536-0.11525-3.5132-0.34605-1.1598-0.23081-2.286-0.57231-3.3784-1.0248-1.0923-0.45252-2.1303-1.0072-3.1135-1.6642-0.9831-0.65688-1.8926-1.4034-2.7287-2.2395-0.8361-0.83612-1.5826-1.7458-2.2395-2.7289-0.6571-0.98316-1.2118-2.021-1.6643-3.1134-0.4526-1.0924-0.7941-2.2185-1.0248-3.3782-0.2306-1.1597-0.3458-2.3308-0.3458-3.5132v-84.038c0-1.1825 0.1152-2.3535 0.3458-3.5132 0.2308-1.1597 0.5722-2.2858 1.0248-3.3782 0.4525-1.0924 1.0072-2.1303 1.6643-3.1134 0.6569-0.98316 1.4034-1.8928 2.2395-2.7289 0.8361-0.83612 1.7456-1.5826 2.7287-2.2396 0.9832-0.65694 2.0212-1.2116 3.1135-1.6642 1.0924-0.45251 2.2186-0.79408 3.3784-1.0248 1.1596-0.23066 2.3307-0.346 3.5132-0.346z" fill="none" stroke="#000" stroke-miterlimit="10"/><text x="1699.9762" y="321.1467" fill="#000000" font-family="monospace" font-size="48.022px" xml:space="preserve"><tspan x="1699.9762 1728.7894 1757.6027 1786.4159 1815.2291 1844.0424 1872.8556" y="321.1467" font-family="monospace" stroke-width="3.0014">feature</tspan></text><path d="m1082 541.75h220.99" fill="none" stroke="#000" stroke-miterlimit="10"/></g><path d="m1318.7 541.75-21.01 10.505 5.2524-10.505-5.2524-10.505z"/><g stroke-width="3.0014"><path d="m1318.7 541.75-21.01 10.505 5.2524-10.505-5.2524-10.505z" fill="none" stroke="#000" stroke-miterlimit="10"/><path d="m841.88 481.72h240.11v120.05h-240.11z" fill="none" stroke="#000" stroke-miterlimit="10"/><text x="931.62543" y="561.25635" fill="#000000" font-family="monospace" font-size="48.022px" xml:space="preserve"><tspan x="931.62543 960.43866" y="561.25635" font-family="monospace" stroke-width="3.0014">C3</tspan></text><path d="m1562.2 541.75h100.94" fill="none" stroke="#000" stroke-miterlimit="10"/></g><path d="m1678.9 541.75-21.01 10.505 5.2524-10.505-5.2524-10.505z"/><g stroke-width="3.0014"><path d="m1678.9 541.75-21.01 10.505 5.2524-10.505-5.2524-10.505z" fill="none" stroke="#000" stroke-miterlimit="10"/><path d="m1322.1 481.72h240.11v120.05h-240.11z" fill="none" stroke="#000" stroke-miterlimit="10"/><text x="1411.8448" y="561.25635" fill="#000000" font-family="monospace" font-size="48.022px" xml:space="preserve"><tspan x="1411.8448 1440.6581" y="561.25635" font-family="monospace" stroke-width="3.0014">C4</tspan></text><path d="m1682.3 481.72h240.11v120.05h-240.11z" fill="none" stroke="#000" stroke-miterlimit="10"/><text x="1757.6027" y="561.25635" fill="#000000" font-family="monospace" font-size="48.022px" xml:space="preserve"><tspan x="1757.6027 1786.4159 1815.2291" y="561.25635" font-family="monospace" stroke-width="3.0014">C2'</tspan></text></g></g></svg>
